<svg width="158" height="157" viewBox="0 0 158 157" fill="none" xmlns="http://www.w3.org/2000/svg">
<path d="M132.913 115.381L85.443 148.907C83.4357 150.332 81.0303 151.097 78.5631 151.097C76.0959 151.097 73.6905 150.332 71.6832 148.907L24.4244 115.381C22.8925 114.288 21.6444 112.849 20.7832 111.183C19.9221 109.517 19.4727 107.671 19.472 105.798V17.4702C19.472 14.3494 20.7197 11.3562 22.9409 9.14817C25.1621 6.94012 28.1753 5.69779 31.3184 5.69409H126.033C129.175 5.70148 132.186 6.94499 134.406 9.15224C136.627 11.3595 137.876 14.3505 137.879 17.4702V105.798C137.879 107.672 137.429 109.52 136.565 111.187C135.701 112.853 134.449 114.291 132.913 115.381Z" fill="url(#paint0_linear_0_17203)"/>
<g opacity="0.3">
<path opacity="0.2" d="M129.437 17.47C129.437 16.5697 129.077 15.7063 128.436 15.0697C127.795 14.4331 126.925 14.0754 126.019 14.0754H31.3181C30.8698 14.0754 30.4259 14.1633 30.0119 14.3341C29.5979 14.5049 29.222 14.7551 28.9056 15.0705C28.5893 15.3859 28.3388 15.7602 28.1685 16.172C27.9982 16.5838 27.9115 17.0249 27.9134 17.47V85.3188H129.437V17.47Z" fill="black"/>
</g>
<path opacity="0.35" d="M27.9134 85.3188V105.812C27.9055 106.355 28.0292 106.893 28.274 107.379C28.5189 107.865 28.8777 108.286 29.3204 108.606L76.5651 142.132C77.1457 142.539 77.8383 142.758 78.5488 142.761C79.26 142.762 79.9537 142.542 80.5326 142.132L128.031 108.55C128.475 108.232 128.835 107.811 129.08 107.325C129.325 106.838 129.448 106.3 129.437 105.756V85.3188H27.9134Z" fill="black"/>
<path d="M82.3549 120.383L82.1861 119.894C81.8546 118.949 81.3226 118.086 80.6259 117.362C79.9293 116.639 79.0843 116.073 78.1482 115.703C79.0843 115.332 79.9293 114.766 80.6259 114.043C81.3226 113.32 81.8546 112.457 82.1861 111.512L82.3549 111.023L82.5237 111.512C82.8567 112.458 83.3909 113.323 84.0901 114.046C84.7893 114.769 85.637 115.334 86.5757 115.703C85.637 116.072 84.7893 116.637 84.0901 117.36C83.3909 118.083 82.8567 118.947 82.5237 119.894L82.3549 120.383Z" fill="white"/>
<path d="M99.7311 38.0883L99.6185 37.7391C99.3898 37.0728 99.0205 36.4628 98.5352 35.9496C98.05 35.4365 97.46 35.0322 96.8047 34.7636C97.4609 34.4966 98.0518 34.0928 98.5372 33.5794C99.0227 33.0661 99.3914 32.4552 99.6185 31.7881L99.7311 31.4529L99.8437 31.7881C100.071 32.4552 100.44 33.0661 100.925 33.5794C101.41 34.0928 102.001 34.4966 102.658 34.7636C102.002 35.0322 101.412 35.4365 100.927 35.9496C100.442 36.4628 100.072 37.0728 99.8437 37.7391L99.7311 38.0883Z" fill="white"/>
<path d="M130.754 72.2016L130.641 71.8663C130.416 71.1984 130.047 70.5867 129.562 70.0731C129.076 69.5595 128.484 69.1563 127.827 68.8909C128.483 68.6231 129.073 68.219 129.559 67.7058C130.044 67.1925 130.413 66.582 130.641 65.9154L130.754 65.5662L130.88 65.9154C131.108 66.582 131.477 67.1925 131.963 67.7058C132.448 68.219 133.038 68.6231 133.694 68.8909C133.037 69.1563 132.445 69.5595 131.959 70.0731C131.474 70.5867 131.106 71.1984 130.88 71.8663L130.754 72.2016Z" fill="white"/>
<path d="M25.6286 73.1092L25.516 72.774C25.2889 72.1069 24.9202 71.496 24.4347 70.9827C23.9492 70.4693 23.3584 70.0655 22.7021 69.7985C23.3584 69.5315 23.9492 69.1277 24.4347 68.6144C24.9202 68.101 25.2889 67.4901 25.516 66.8231L25.6286 66.4878L25.7552 66.8231C25.9806 67.491 26.3488 68.1027 26.8344 68.6163C27.3201 69.1298 27.9118 69.5331 28.569 69.7985C27.9118 70.0639 27.3201 70.4672 26.8344 70.9808C26.3488 71.4943 25.9806 72.106 25.7552 72.774L25.6286 73.1092Z" fill="white"/>
<path opacity="0.3" d="M38.1374 54.6715C39.1242 54.6715 39.9242 53.8772 39.9242 52.8974C39.9242 51.9176 39.1242 51.1233 38.1374 51.1233C37.1506 51.1233 36.3506 51.9176 36.3506 52.8974C36.3506 53.8772 37.1506 54.6715 38.1374 54.6715Z" fill="white"/>
<path opacity="0.3" d="M57.2829 36.5387C58.2697 36.5387 59.0697 35.7444 59.0697 34.7646C59.0697 33.7848 58.2697 32.9905 57.2829 32.9905C56.2961 32.9905 55.4961 33.7848 55.4961 34.7646C55.4961 35.7444 56.2961 36.5387 57.2829 36.5387Z" fill="white"/>
<path opacity="0.3" d="M120.007 55.076C120.993 55.076 121.793 54.2817 121.793 53.3019C121.793 52.3221 120.993 51.5278 120.007 51.5278C119.02 51.5278 118.22 52.3221 118.22 53.3019C118.22 54.2817 119.02 55.076 120.007 55.076Z" fill="white"/>
<path opacity="0.3" d="M107.175 96.815C108.161 96.815 108.961 96.0207 108.961 95.0409C108.961 94.0611 108.161 93.2668 107.175 93.2668C106.188 93.2668 105.388 94.0611 105.388 95.0409C105.388 96.0207 106.188 96.815 107.175 96.815Z" fill="white"/>
<path opacity="0.3" d="M48.4352 95.0414C49.4221 95.0414 50.222 94.2471 50.222 93.2673C50.222 92.2875 49.4221 91.4932 48.4352 91.4932C47.4484 91.4932 46.6484 92.2875 46.6484 93.2673C46.6484 94.2471 47.4484 95.0414 48.4352 95.0414Z" fill="white"/>
<path opacity="0.3" d="M71.1149 115.646C72.1017 115.646 72.9017 114.852 72.9017 113.872C72.9017 112.892 72.1017 112.098 71.1149 112.098C70.1281 112.098 69.3281 112.892 69.3281 113.872C69.3281 114.852 70.1281 115.646 71.1149 115.646Z" fill="white"/>
<path d="M78.5151 105.059C90.2326 105.059 99.7316 103.307 99.7316 101.147C99.7316 98.987 90.2326 97.2358 78.5151 97.2358C66.7975 97.2358 57.2986 98.987 57.2986 101.147C57.2986 103.307 66.7975 105.059 78.5151 105.059Z" fill="black"/>
<path d="M97.0733 42.6024C95.1239 42.592 93.2341 41.9345 91.7044 40.7347C90.1747 39.5348 89.0932 37.8615 88.6317 35.981H68.6393C68.1756 37.8603 67.0934 39.5323 65.5642 40.7317C64.0351 41.9312 62.1464 42.5895 60.1977 42.6024H48.0137V56.3202C48.0153 66.0393 50.9103 75.5411 56.3349 83.6314C61.7595 91.7216 69.4716 98.0392 78.5018 101.79H78.6003C87.6682 98.0556 95.4162 91.7335 100.864 83.6244C106.311 75.5153 109.212 65.9837 109.201 56.2364V42.6024H97.0733Z" fill="#3577FF"/>
<path d="M78.5138 95.0827C71.2026 91.5391 65.0429 86.0247 60.7388 79.1698C56.4347 72.3148 54.1597 64.3959 54.1739 56.3179V48.7186H60.1393C62.602 48.7215 65.0271 48.1182 67.1975 46.9627C69.368 45.8072 71.2161 44.1355 72.5765 42.0972H84.6339C85.9925 44.1372 87.8402 45.8103 90.0111 46.966C92.1819 48.1217 94.6079 48.724 97.0712 48.7186H103.037V56.2341C103.053 64.3463 100.76 72.298 96.4209 79.1717C92.0819 86.0455 85.8742 91.5613 78.5138 95.0827Z" fill="#1B59F8"/>
<path d="M50.0393 80.8232H31.8477L37.799 71.1983L31.8477 61.5735H50.0393V80.8232Z" fill="url(#paint1_linear_0_17203)"/>
<path d="M43.2568 76.4355L50.0382 80.8219V76.4355H43.2568Z" fill="#FFCE51"/>
<path d="M107.173 80.8232H125.364L119.413 71.1983L125.364 61.5735H107.173V80.8232Z" fill="url(#paint2_linear_0_17203)"/>
<path d="M113.968 76.4353L107.173 80.8217V76.4353H113.968Z" fill="#FFCE51"/>
<path d="M113.646 57.1851H43.2432V76.4347H113.646V57.1851Z" fill="#FF3E13"/>
<path d="M78.4727 19.2029V28.7998" stroke="white" stroke-width="3.975" stroke-miterlimit="10"/>
<path d="M66.1631 23.1687L70.1025 30.8378" stroke="white" stroke-width="3.975" stroke-miterlimit="10"/>
<path d="M90.7815 23.1687L86.8562 30.8378" stroke="white" stroke-width="3.975" stroke-miterlimit="10"/>
<path d="M78.4318 84.1043C88.2301 84.1043 96.1732 76.2177 96.1732 66.489C96.1732 56.7604 88.2301 48.8738 78.4318 48.8738C68.6335 48.8738 60.6904 56.7604 60.6904 66.489C60.6904 76.2177 68.6335 84.1043 78.4318 84.1043Z" fill="url(#paint3_linear_0_17203)"/>
<path d="M70.1035 66.9087L75.2951 72.0773L86.5505 60.9019" stroke="white" stroke-width="5.38613" stroke-miterlimit="10"/>
<path d="M118.716 44.5376L118.462 43.8252C117.98 42.4174 117.197 41.1295 116.168 40.0495C115.138 38.9694 113.886 38.1227 112.497 37.5669C113.886 37.0065 115.137 36.1565 116.166 35.0744C117.195 33.9923 117.978 32.7033 118.462 31.2947L118.716 30.5823L118.955 31.2947C119.439 32.7033 120.222 33.9923 121.251 35.0744C122.28 36.1565 123.532 37.0065 124.92 37.5669C123.531 38.1227 122.279 38.9694 121.25 40.0495C120.22 41.1295 119.437 42.4174 118.955 43.8252L118.716 44.5376Z" fill="#FFCE51"/>
<path opacity="0.3" d="M104.589 117.546C105.754 117.546 106.699 116.608 106.699 115.451C106.699 114.294 105.754 113.355 104.589 113.355C103.423 113.355 102.479 114.294 102.479 115.451C102.479 116.608 103.423 117.546 104.589 117.546Z" fill="white"/>
<path d="M122.529 97.6254L122.36 97.1644C122.051 96.2489 121.544 95.4112 120.876 94.7093C120.208 94.0074 119.394 93.4581 118.491 93.0993C119.392 92.7366 120.203 92.1859 120.871 91.4846C121.539 90.7832 122.046 89.9476 122.36 89.0343L122.529 88.5593L122.684 89.0343C123 89.9463 123.509 90.7807 124.176 91.4817C124.843 92.1828 125.654 92.7343 126.553 93.0993C125.651 93.4605 124.839 94.0106 124.171 94.7122C123.503 95.4138 122.996 96.2503 122.684 97.1644L122.529 97.6254Z" fill="white"/>
<path d="M35.9885 48.0506L35.7212 47.2963C35.2137 45.8142 34.3905 44.4581 33.3077 43.3203C32.2249 42.1825 30.9078 41.2898 29.4463 40.7028C30.9059 40.1165 32.2216 39.2256 33.3042 38.0904C34.3869 36.9552 35.2111 35.6023 35.7212 34.1232L35.9885 33.3689L36.2418 34.1232C36.7566 35.6019 37.5842 36.9541 38.6689 38.0889C39.7537 39.2238 41.0704 40.115 42.5307 40.7028C41.0685 41.2913 39.7504 42.1844 38.6655 43.3218C37.5806 44.4593 36.7541 45.8146 36.2418 47.2963L35.9885 48.0506Z" fill="#FFCE51"/>
<path d="M101.2 25.1397L101.059 24.7346C100.787 23.9442 100.348 23.2209 99.77 22.6136C99.1924 22.0064 98.4902 21.5292 97.7109 21.2144C98.4923 20.9043 99.1972 20.4306 99.7775 19.8255C100.358 19.2204 100.8 18.4982 101.074 17.7081L101.214 17.303L101.355 17.7081C101.627 18.4968 102.067 19.2182 102.645 19.8232C103.222 20.4282 103.925 20.9026 104.703 21.2144C103.924 21.5292 103.222 22.0064 102.644 22.6136C102.067 23.2209 101.627 23.9442 101.355 24.7346L101.2 25.1397Z" fill="white"/>
<path d="M52.8866 25.1397L52.746 24.7346C52.4739 23.9442 52.0342 23.2209 51.4565 22.6136C50.8789 22.0064 50.1767 21.5292 49.3975 21.2144C50.1763 20.9026 50.8784 20.4282 51.4561 19.8232C52.0339 19.2182 52.4738 18.4968 52.746 17.7081L52.8866 17.303L53.0273 17.7081C53.297 18.4981 53.736 19.2207 54.3141 19.8261C54.8922 20.4314 55.5956 20.905 56.3758 21.2144C55.5951 21.5268 54.8917 22.0032 54.3137 22.6108C53.7357 23.2184 53.2969 23.9429 53.0273 24.7346L52.8866 25.1397Z" fill="white"/>
<path d="M33.3158 96.3556L33.0907 95.713C32.6613 94.4565 31.964 93.3069 31.0461 92.3425C30.1283 91.3782 29.0117 90.6219 27.7725 90.1253C29.0097 89.6256 30.1246 88.8682 31.0421 87.9043C31.9595 86.9404 32.6581 85.7923 33.0907 84.5376L33.3158 83.895L33.5268 84.5376C33.9626 85.7928 34.6639 86.9409 35.5836 87.9047C36.5033 88.8685 37.6202 89.6256 38.8591 90.1253C37.6178 90.621 36.4988 91.3768 35.5785 92.3412C34.6583 93.3055 33.9585 94.4556 33.5268 95.713L33.3158 96.3556Z" fill="white"/>
<path opacity="0.3" d="M64.9327 123.776C66.0982 123.776 67.043 122.838 67.043 121.681C67.043 120.523 66.0982 119.585 64.9327 119.585C63.7671 119.585 62.8223 120.523 62.8223 121.681C62.8223 122.838 63.7671 123.776 64.9327 123.776Z" fill="white"/>
<path d="M51.8475 120.262L51.5943 119.55C51.1118 118.142 50.3291 116.854 49.2996 115.774C48.2701 114.694 47.0181 113.847 45.6289 113.292C47.0176 112.731 48.2688 111.881 49.298 110.799C50.3272 109.717 51.1103 108.428 51.5943 107.019L51.8475 106.307L52.0867 107.019C52.5707 108.428 53.3538 109.717 54.383 110.799C55.4122 111.881 56.6634 112.731 58.0521 113.292C56.6629 113.847 55.4108 114.694 54.3814 115.774C53.3519 116.854 52.5692 118.142 52.0867 119.55L51.8475 120.262Z" fill="#FFCE51"/>
<path d="M112.982 114.572L112.798 114.054C112.446 113.029 111.877 112.091 111.127 111.304C110.377 110.518 109.466 109.901 108.454 109.497C109.465 109.089 110.376 108.47 111.126 107.682C111.875 106.894 112.445 105.955 112.798 104.93L112.982 104.411L113.156 104.93C113.509 105.955 114.079 106.894 114.828 107.682C115.578 108.47 116.489 109.089 117.5 109.497C116.488 109.901 115.577 110.518 114.827 111.304C114.078 112.091 113.508 113.029 113.156 114.054L112.982 114.572Z" fill="#FFCE51"/>
<path d="M82.3549 120.228L82.1861 119.739C81.8546 118.794 81.3226 117.931 80.6259 117.208C79.9293 116.485 79.0843 115.919 78.1482 115.548C79.0843 115.178 79.9293 114.612 80.6259 113.889C81.3226 113.165 81.8546 112.302 82.1861 111.357L82.3549 110.868L82.5237 111.357C82.8567 112.304 83.3909 113.168 84.0901 113.891C84.7893 114.614 85.637 115.179 86.5757 115.548C85.637 115.917 84.7893 116.482 84.0901 117.205C83.3909 117.929 82.8567 118.793 82.5237 119.739L82.3549 120.228Z" fill="white"/>
<path d="M99.7311 37.9335L99.6185 37.5843C99.3898 36.918 99.0205 36.308 98.5352 35.7949C98.05 35.2817 97.46 34.8774 96.8047 34.6088C97.4609 34.3418 98.0518 33.938 98.5372 33.4247C99.0227 32.9113 99.3914 32.3004 99.6185 31.6334L99.7311 31.2981L99.8437 31.6334C100.071 32.3004 100.44 32.9113 100.925 33.4247C101.41 33.938 102.001 34.3418 102.658 34.6088C102.002 34.8774 101.412 35.2817 100.927 35.7949C100.442 36.308 100.072 36.918 99.8437 37.5843L99.7311 37.9335Z" fill="white"/>
<path d="M130.754 72.0468L130.641 71.7115C130.416 71.0436 130.047 70.4319 129.562 69.9183C129.076 69.4048 128.484 69.0015 127.827 68.7361C128.483 68.4683 129.073 68.0642 129.559 67.551C130.044 67.0377 130.413 66.4273 130.641 65.7606L130.754 65.4114L130.88 65.7606C131.108 66.4273 131.477 67.0377 131.963 67.551C132.448 68.0642 133.038 68.4683 133.694 68.7361C133.037 69.0015 132.445 69.4048 131.959 69.9183C131.474 70.4319 131.106 71.0436 130.88 71.7115L130.754 72.0468Z" fill="white"/>
<path d="M25.6286 72.9545L25.516 72.6192C25.2889 71.9521 24.9202 71.3412 24.4347 70.8279C23.9492 70.3146 23.3584 69.9107 22.7021 69.6437C23.3584 69.3767 23.9492 68.9729 24.4347 68.4596C24.9202 67.9462 25.2889 67.3354 25.516 66.6683L25.6286 66.333L25.7552 66.6683C25.9806 67.3362 26.3488 67.9479 26.8344 68.4615C27.3201 68.975 27.9118 69.3783 28.569 69.6437C27.9118 69.9091 27.3201 70.3124 26.8344 70.826C26.3488 71.3395 25.9806 71.9512 25.7552 72.6192L25.6286 72.9545Z" fill="white"/>
<path opacity="0.3" d="M120.007 54.9212C120.993 54.9212 121.793 54.127 121.793 53.1471C121.793 52.1673 120.993 51.373 120.007 51.373C119.02 51.373 118.22 52.1673 118.22 53.1471C118.22 54.127 119.02 54.9212 120.007 54.9212Z" fill="white"/>
<path opacity="0.3" d="M48.4352 94.8866C49.4221 94.8866 50.222 94.0923 50.222 93.1125C50.222 92.1327 49.4221 91.3384 48.4352 91.3384C47.4484 91.3384 46.6484 92.1327 46.6484 93.1125C46.6484 94.0923 47.4484 94.8866 48.4352 94.8866Z" fill="white"/>
<path d="M78.4727 19.0481V28.645" stroke="white" stroke-width="3.975" stroke-miterlimit="10"/>
<path d="M66.1631 23.0139L70.1025 30.6831" stroke="white" stroke-width="3.975" stroke-miterlimit="10"/>
<path d="M90.7815 23.0139L86.8562 30.6831" stroke="white" stroke-width="3.975" stroke-miterlimit="10"/>
<defs>
<linearGradient id="paint0_linear_0_17203" x1="78.6756" y1="151.086" x2="78.6756" y2="5.69409" gradientUnits="userSpaceOnUse">
<stop stop-color="#FF7201"/>
<stop offset="1" stop-color="#FFA901"/>
</linearGradient>
<linearGradient id="paint1_linear_0_17203" x1="31.8477" y1="71.1983" x2="50.0393" y2="71.1983" gradientUnits="userSpaceOnUse">
<stop stop-color="#FFCE51"/>
<stop offset="1" stop-color="#FF3E13"/>
</linearGradient>
<linearGradient id="paint2_linear_0_17203" x1="-361.403" y1="1185.37" x2="-596.621" y2="1185.37" gradientUnits="userSpaceOnUse">
<stop stop-color="#FFCE51"/>
<stop offset="1" stop-color="#FF3E13"/>
</linearGradient>
<linearGradient id="paint3_linear_0_17203" x1="60.7045" y1="66.4891" x2="96.1732" y2="66.4891" gradientUnits="userSpaceOnUse">
<stop stop-color="#7FDD53"/>
<stop offset="1" stop-color="#2FEA9B"/>
</linearGradient>
</defs>
</svg>
