<svg width="78" height="68" viewBox="0 0 78 68" fill="none" xmlns="http://www.w3.org/2000/svg">
<path d="M76.8682 37.1429C76.4024 41.9738 74.8846 46.6442 72.4213 50.8266C69.9594 55.0089 66.6124 58.602 62.6144 61.3537C58.6165 64.1054 54.0645 65.9492 49.2782 66.7558C44.4933 67.5623 39.5891 67.3122 34.9094 66.0227C30.2311 64.7332 25.8909 62.4357 22.1932 59.2913C18.4968 56.1471 15.5314 52.232 13.5071 47.8208C11.4843 43.4094 10.4491 38.6088 10.4771 33.7556C10.5052 28.9022 11.5937 24.1137 13.6685 19.7259C19.4984 7.42908 32.571 -0.507879 46.9018 0.859837C65.1998 2.6049 78.6174 18.8506 76.8682 37.1429Z" fill="#C4D0FB"/>
<path d="M11.4239 16.9818L12.281 15.4233C12.6415 14.6453 12.9613 13.8494 13.2405 13.0385C13.6725 11.7662 13.521 9.95242 15.4134 8.23962C17.3057 6.52682 14.5072 6.99956 13.5617 7.78933C12.7733 8.44723 12.1323 10.3143 11.3481 10.7352C11.1686 10.4817 11.0269 10.2039 10.9273 9.91034L9.21307 1.87799C9.18782 1.74935 9.11768 1.6339 9.01528 1.55296C8.91147 1.47216 8.78242 1.43106 8.65196 1.43751L8.33774 1.44733C8.26198 1.4514 8.18764 1.47132 8.1189 1.50583C8.05157 1.54034 7.99125 1.58859 7.94355 1.64765C7.89445 1.70671 7.85939 1.77516 7.83975 1.84867C7.8187 1.92217 7.8145 1.99905 7.82572 2.07438C8.08944 3.79279 9.00546 8.90594 8.91288 8.90875L8.7235 8.99853L6.09468 0.86237C6.05821 0.733875 5.97544 0.623475 5.86322 0.551933C5.7496 0.480532 5.61493 0.453177 5.48307 0.475201L5.06223 0.54534C4.98929 0.556843 4.91915 0.583075 4.85742 0.622634C4.7943 0.662052 4.74099 0.713815 4.69891 0.774836C4.65823 0.835717 4.62877 0.904594 4.61474 0.977118C4.60071 1.0495 4.60212 1.12413 4.61755 1.19623C5.02155 3.06755 6.9111 9.29452 6.81571 9.30013L6.58425 9.37868L3.73239 2.64531C3.69311 2.5112 3.60333 2.39744 3.48129 2.32744C3.36065 2.25744 3.21757 2.23668 3.0815 2.26936L2.74623 2.35213C2.67609 2.36924 2.61016 2.39996 2.55265 2.44247C2.49513 2.48497 2.44604 2.53856 2.40816 2.6C2.37169 2.66158 2.34644 2.72976 2.33522 2.80088C2.32399 2.87186 2.3282 2.94438 2.34504 3.01424L4.91073 9.6382L4.67506 9.78689L1.98733 5.00199C1.93542 4.87883 1.84003 4.77895 1.71939 4.72101C1.60016 4.66308 1.46268 4.65129 1.33363 4.68777L1.17371 4.73546C1.03624 4.77572 0.921208 4.8676 0.851069 4.99175C0.78093 5.1159 0.761291 5.26249 0.797763 5.40038C1.05588 6.38233 2.34083 8.44302 3.08851 10.5907C3.67347 12.2544 3.71415 13.587 4.67927 15.6014C5.08608 16.4557 5.86042 17.47 6.28265 18.0353" fill="#FFCCD7"/>
<path d="M60.1623 62.9273C53.9241 66.4646 46.7096 67.8918 39.5932 66.9964C32.4783 66.1012 25.8417 62.9311 20.6739 57.9587L21.0751 47.6721L8.1975 45.5454C6.29672 45.0233 4.64424 43.8409 3.53745 42.2103C2.43065 40.5797 1.94108 38.608 2.1571 36.649L3.2106 16.4573L13.385 17.1587L13.6656 19.7286L15.2381 33.2907C15.2381 33.2907 25.8824 34.6219 40.4083 38.3407C54.5483 41.9613 58.7132 54.5176 60.1623 62.9273Z" fill="#A1BB5A"/>
<path d="M20.9348 47.5417L21.0541 44.0361" stroke="#C4D0FB" stroke-width="1.19266" stroke-linecap="square"/>
<path d="M49.0832 25.7495C52.9829 20.7777 52.4274 13.8317 47.8417 10.2351C43.2574 6.63849 36.3781 7.75328 32.4784 12.725C28.5787 17.6968 29.1342 24.6428 33.7199 28.2394C38.3056 31.836 45.1834 30.7212 49.0832 25.7495Z" fill="#001833"/>
<path d="M33.7102 42.3613C32.9442 41.8069 32.3803 41.0181 32.104 40.1146C31.8262 39.2109 31.8515 38.2416 32.1741 37.3533L37.2382 23.4489C37.4107 22.8849 37.6969 22.3619 38.0784 21.9118C38.4586 21.4617 38.9285 21.0939 39.456 20.8308C39.9848 20.5676 40.56 20.4147 41.1491 20.3812C41.7383 20.3476 42.3275 20.4343 42.8816 20.6359C43.4371 20.8375 43.9435 21.1499 44.3741 21.5538C44.8034 21.9578 45.1471 22.445 45.3827 22.9859C45.6184 23.5266 45.7419 24.1098 45.7447 24.6996C45.7475 25.2895 45.631 25.8739 45.401 26.4172L40.3355 40.323C40.1041 40.9534 39.7309 41.5219 39.2442 41.9838C38.7574 42.4457 38.1696 42.7886 37.5285 42.9857C36.8861 43.1826 36.2071 43.2283 35.545 43.1193C34.8829 43.0103 34.2544 42.7494 33.7102 42.3571V42.3613Z" fill="#FFCCD7"/>
<path d="M34.57 34.608L33.7283 34.2952C32.7492 33.9318 31.8626 33.3572 31.1318 32.6122C30.3995 31.8672 29.8426 30.9703 29.4961 29.985C29.151 28.9998 29.0276 27.9505 29.1342 26.912C29.2408 25.8734 29.5747 24.8711 30.1119 23.9763L32.7772 19.5435C33.6371 18.1119 34.974 17.0291 36.5535 16.4852C38.1317 15.9414 39.8515 15.9713 41.4114 16.5696V16.5696C43.1705 17.2447 44.5887 18.591 45.356 20.3122C46.1219 22.0335 46.1738 23.9887 45.4991 25.748L43.6755 30.4936C43.0049 32.2402 41.6737 33.652 39.9679 34.4222C38.2635 35.1925 36.3235 35.2593 34.57 34.608Z" fill="#FFCCD7"/>
<path d="M35.242 22.0583L31.5934 25.021L33.0256 26.097" stroke="#24272D" stroke-width="1.19266" stroke-linecap="square"/>
<path d="M36.1692 24.1512C36.5942 24.1512 36.9393 23.8064 36.9393 23.3811C36.9393 22.9558 36.5942 22.611 36.1692 22.611C35.7441 22.611 35.399 22.9558 35.399 23.3811C35.399 23.8064 35.7441 24.1512 36.1692 24.1512Z" fill="#24272D"/>
<path d="M32.9662 22.5312C33.3912 22.5312 33.7363 22.1864 33.7363 21.7611C33.7363 21.3358 33.3912 20.991 32.9662 20.991C32.5411 20.991 32.196 21.3358 32.196 21.7611C32.196 22.1864 32.5411 22.5312 32.9662 22.5312Z" fill="#24272D"/>
<path d="M56.3131 46.4151C56.3131 46.4151 52.7613 55.3073 45.8427 51.3571C34.389 44.8159 36.7415 36.214 39.9707 32.2792C41.257 30.7123 43.0568 30.0179 44.9351 29.4484C39.4741 24.6326 42.159 20.7974 42.159 20.7974C42.159 20.7974 27.5532 19.8589 32.2764 12.9306C36.9996 6.00221 45.4359 6.90981 49.908 9.91879C60.3026 16.9159 56.7648 24.0476 59.1369 26.6737C72.5854 41.5755 56.3131 46.4151 56.3131 46.4151Z" fill="#001833"/>
<path d="M46.4697 30.0586C47.9805 29.1405 48.4603 27.1721 47.5415 25.6621C46.6241 24.1521 44.6559 23.6724 43.1451 24.5904L40.6594 26.1019C39.15 27.02 38.6703 28.9883 39.5877 30.4984C40.5065 32.0083 42.4746 32.4881 43.984 31.5701L46.4697 30.0586Z" fill="#FFCCD7"/>
<path d="M45.791 26.8645L42.2644 29.0066" stroke="#24272D" stroke-width="1.19266" stroke-linecap="square"/>
<path d="M35.1506 28.2672C35.1871 28.7573 35.0286 29.2422 34.7087 29.6151C34.3875 29.988 33.933 30.2184 33.442 30.2556C32.9525 30.2928 32.4671 30.1338 32.0954 29.8134C31.7222 29.4932 31.4908 29.0378 31.4543 28.5477C31.3757 27.5265 32.4096 27.5363 33.4294 27.4577C34.4492 27.3792 35.0721 27.2459 35.1506 28.2672Z" fill="#24272D"/>
</svg>
