<svg width="58" height="58" viewBox="0 0 58 58" fill="none" xmlns="http://www.w3.org/2000/svg">
<path d="M57.1987 32.079C56.7988 36.2359 55.4943 40.255 53.3764 43.8544C51.2586 47.4536 48.3787 50.5459 44.9391 52.9141C41.4994 55.2824 37.5832 56.8693 33.4652 57.5637C29.3471 58.258 25.1271 58.0428 21.1011 56.9332C17.0751 55.8235 13.3406 53.8465 10.1597 51.1406C6.97881 48.4346 4.4285 45.0655 2.68783 41.2694C0.947038 37.4735 0.0579964 33.3425 0.0830977 29.1664C0.108199 24.9903 1.04672 20.8703 2.83289 17.0955C7.8483 6.51436 19.0932 -0.311239 31.4229 0.86538C47.1607 2.36663 58.7012 16.3425 57.1987 32.079Z" fill="#C4D0FB"/>
<path d="M47.0581 51.3249L46.0637 52.1201C45.034 52.9056 43.9528 53.6209 42.8271 54.261C39.4931 56.1506 35.8137 57.3517 32.0069 57.7933C28.2002 58.2347 24.3435 57.9075 20.6656 56.8311C16.9875 55.7546 13.5631 53.951 10.5951 51.5266C7.62707 49.1024 5.17584 46.1071 3.38678 42.718C7.93155 39.3777 15.5404 35.3868 25.2731 36.2014C41.5527 37.5711 47.0581 51.3249 47.0581 51.3249Z" fill="#A1BB5A"/>
<path d="M27.6614 42.9871C27.4782 42.9876 27.2953 42.9767 27.1135 42.9545C25.9059 42.8107 24.805 42.1932 24.0528 41.2376C23.3005 40.2822 22.9586 39.0671 23.1022 37.8595L25.2744 19.5875C25.4184 18.3797 26.0362 17.2786 26.9921 16.5264C27.4654 16.154 28.0074 15.8785 28.5872 15.7155C29.167 15.5526 29.7732 15.5054 30.3713 15.5767C30.9692 15.648 31.5474 15.8364 32.0726 16.1312C32.5978 16.4259 33.0598 16.8213 33.4322 17.2944C33.8046 17.7677 34.0802 18.3098 34.2431 18.8896C34.4062 19.4693 34.4534 20.0756 34.382 20.6736L32.2098 38.9456C32.0767 40.0588 31.5405 41.0846 30.7024 41.8293C29.8643 42.574 28.7825 42.9859 27.6614 42.9871V42.9871Z" fill="#FFCCD7"/>
<path d="M31.5 33.6526L32.4727 33.7612C33.6037 33.8888 34.7491 33.7655 35.8271 33.4001C36.905 33.0346 37.8892 32.4362 38.7096 31.6471C39.53 30.8581 40.1664 29.898 40.5735 28.8349C40.9806 27.772 41.1484 26.6324 41.065 25.4972L40.6523 19.8735C40.5188 18.0573 39.7499 16.3461 38.4802 15.0404C37.2105 13.7348 35.5214 12.9182 33.7096 12.7342V12.7342C31.6657 12.5268 29.6232 13.1399 28.0312 14.4385C26.4393 15.7371 25.4285 17.6149 25.2211 19.6587L24.6611 25.1725C24.455 27.2017 25.0576 29.2302 26.338 30.8179C27.6184 32.4055 29.4732 33.4241 31.5 33.6526Z" fill="#FFCCD7"/>
<path d="M26.9946 27.6755L26.9955 27.6748C28.3353 26.8507 28.7532 25.0965 27.929 23.7567L27.0823 22.3805C26.2581 21.0408 24.5039 20.6229 23.1642 21.447L23.1631 21.4477C21.8235 22.2719 21.4056 24.0261 22.2298 25.3657L23.0765 26.7421C23.9007 28.0817 25.6548 28.4996 26.9946 27.6755Z" fill="#FFCCD7"/>
<path d="M23.4847 23.6724L25.768 26.0859" stroke="#001833" stroke-width="0.59633" stroke-linecap="square"/>
<path d="M37.0611 20.5881L37.2216 25.1076L35.6141 25.1727" stroke="#001833" stroke-width="0.59633" stroke-linecap="square"/>
<path d="M32.2724 26.5761C32.1396 26.8217 32.0564 27.0912 32.0276 27.369C31.9989 27.6468 32.0251 27.9275 32.1048 28.1952C32.1845 28.4628 32.3163 28.7122 32.4923 28.9289C32.6684 29.1458 32.8855 29.3257 33.1311 29.4586C33.3768 29.5914 33.6461 29.6747 33.9239 29.7034C34.2017 29.7321 34.4824 29.706 34.7501 29.6262C35.0178 29.5465 35.2671 29.4148 35.4838 29.2387C35.7007 29.0626 35.8806 28.8456 36.0135 28.5999C36.5722 27.5657 35.4849 27.0939 34.4447 26.5351C33.4044 25.9764 32.8312 25.5431 32.2724 26.5761Z" fill="#001833"/>
<path d="M27.5926 25.7592L29.7648 17.6001L30.2801 15.6692C30.7643 16.1882 31.3311 16.6233 31.9576 16.9569C34.2311 18.1806 41.0857 17.693 42.0355 12.8864C42.8102 8.96673 38.648 11.2198 36.5168 10.9748C33.168 10.5887 30.8449 8.61797 26.2591 11.0955C20.7742 14.063 23.3725 21.3375 23.3725 21.3375C23.3725 21.3375 25.786 20.3926 27.5926 25.7592Z" fill="#001833"/>
<path opacity="0.4" d="M32.7153 33.7853L29.8105 33.521L32.4631 36.1096L32.7153 33.7853Z" fill="#24272D"/>
<path d="M33.9656 23.0295C34.4061 23.0295 34.7633 22.6724 34.7633 22.2318C34.7633 21.7912 34.4061 21.4341 33.9656 21.4341C33.525 21.4341 33.1679 21.7912 33.1679 22.2318C33.1679 22.6724 33.525 23.0295 33.9656 23.0295Z" fill="#001833"/>
<path d="M38.7242 23.0295C39.1648 23.0295 39.5219 22.6724 39.5219 22.2318C39.5219 21.7912 39.1648 21.4341 38.7242 21.4341C38.2836 21.4341 37.9265 21.7912 37.9265 22.2318C37.9265 22.6724 38.2836 23.0295 38.7242 23.0295Z" fill="#001833"/>
</svg>
