<svg width="48" height="48" viewBox="0 0 48 48" fill="none" xmlns="http://www.w3.org/2000/svg">
<rect x="0.5" y="0.5" width="47" height="47" rx="23.5" fill="white"/>
<rect x="0.5" y="0.5" width="47" height="47" rx="23.5" stroke="#F9F7F6"/>
<path fill-rule="evenodd" clip-rule="evenodd" d="M13.2485 16.6863C12.8449 17.3901 12.1992 17.9452 11.5534 17.8659C11.4727 16.9143 11.7889 15.9032 12.1588 15.2787C12.5624 14.5551 13.2686 14.0397 13.8404 14C13.9076 14.9913 13.6453 15.9627 13.2485 16.6863ZM13.8336 18.0542C13.2647 18.006 12.7457 18.3064 12.3264 18.549C12.0566 18.7051 11.8281 18.8373 11.6543 18.8373C11.4592 18.8373 11.2213 18.6981 10.9542 18.5417C10.6042 18.3368 10.204 18.1025 9.78437 18.1137C8.82251 18.1335 7.92791 18.9365 7.43689 20.2152C6.42795 22.7726 7.17457 26.5593 8.14988 28.6409C8.62745 29.6718 9.19918 30.8018 9.95253 30.7622C10.284 30.7438 10.5224 30.5947 10.7691 30.4404C11.0531 30.2628 11.3482 30.0782 11.809 30.0782C12.2538 30.0782 12.5359 30.2579 12.8068 30.4305C13.0644 30.5945 13.3117 30.752 13.6789 30.7424C14.4591 30.7225 14.9502 29.7115 15.4277 28.6806C15.9431 27.5741 16.1696 26.4943 16.204 26.3304L16.208 26.3114C16.2072 26.3102 16.2008 26.3059 16.1896 26.2984C16.0173 26.1821 14.7005 25.2937 14.6878 22.9114C14.6752 20.9118 15.7323 19.8987 15.8987 19.7392C15.9088 19.7295 15.9157 19.723 15.9188 19.7196C15.2461 18.2525 14.1968 18.0939 13.8336 18.0542ZM19.2349 30.6333V15.1796H23.1698C25.2011 15.1796 26.6203 17.2414 26.6203 20.2548C26.6203 23.2683 25.1742 25.3499 23.1159 25.3499H20.8626V30.6333H19.2349ZM20.8625 17.2018H22.7391C24.1517 17.2018 24.9588 18.312 24.9588 20.2648C24.9588 22.2175 24.1517 23.3377 22.7324 23.3377H20.8625V17.2018ZM31.9947 28.7797C31.5643 29.989 30.6158 30.7523 29.5935 30.7523C28.08 30.7523 27.024 29.424 27.024 27.4217C27.024 25.4391 28.0464 24.2992 29.9365 24.1307L31.9678 23.9522V23.0998C31.9678 21.8409 31.4096 21.1569 30.4141 21.1569C29.5935 21.1569 28.9948 21.7814 28.8737 22.733H27.4074C27.4545 20.7307 28.7325 19.2735 30.4611 19.2735C32.3243 19.2735 33.5351 20.7108 33.5351 22.9412V30.6333H32.0284V28.7797H31.9947ZM30.0305 28.9185C29.1629 28.9185 28.6113 28.3039 28.6113 27.3622C28.6113 26.3908 29.1427 25.8257 30.1583 25.7365L31.9677 25.568V26.4403C31.9677 27.8876 31.1337 28.9185 30.0305 28.9185ZM38.5326 31.238C37.8802 33.9442 37.1336 34.8363 35.5462 34.8363C35.4251 34.8363 35.0215 34.8165 34.9273 34.7768V32.9232C35.0282 32.943 35.2771 32.9628 35.4049 32.9628C36.1246 32.9628 36.5282 32.5167 36.7771 31.357L36.9251 30.673L34.1673 19.4222H35.869L37.786 28.5517H37.8197L39.7366 19.4222H41.3913L38.5326 31.238Z" fill="black"/>
</svg>
