<svg width="126" height="126" viewBox="0 0 126 126" fill="none" xmlns="http://www.w3.org/2000/svg">
<path d="M63 113C90.6142 113 113 90.6142 113 63C113 35.3858 90.6142 13 63 13C35.3858 13 13 35.3858 13 63C13 90.6142 35.3858 113 63 113Z" fill="#A1BB5A"/>
<path d="M84.5789 81.8525H63.084V45.4033C63.084 45.4033 64.7413 55.7713 70.8162 63.3861C74.3304 67.7911 81.3779 67.8084 84.9528 63.4464C87.118 60.8041 88.4334 57.3512 89.2055 53.3234" fill="white"/>
<path d="M41.5873 81.8505H63.0822V45.4014C63.0822 45.4014 61.4249 55.7693 55.3499 63.3841C51.8358 67.7891 44.7883 67.8065 41.2132 63.4444C39.0479 60.8022 37.7328 57.3492 36.9604 53.3215" fill="white"/>
<path d="M85.9723 81.8477H40.1842V84.6076H85.9723V81.8477Z" fill="white"/>
<path d="M63.0854 48.8673C64.9817 48.8673 66.519 47.33 66.519 45.4336C66.519 43.5373 64.9817 42 63.0854 42C61.189 42 59.6517 43.5373 59.6517 45.4336C59.6517 47.33 61.189 48.8673 63.0854 48.8673Z" fill="white"/>
<path d="M88.7354 58.5744C90.6317 58.5744 92.169 57.0372 92.169 55.1408C92.169 53.2445 90.6317 51.7072 88.7354 51.7072C86.839 51.7072 85.3018 53.2445 85.3018 55.1408C85.3018 57.0372 86.839 58.5744 88.7354 58.5744Z" fill="white"/>
<path d="M37.4335 58.5744C39.3298 58.5744 40.8671 57.0372 40.8671 55.1408C40.8671 53.2445 39.3298 51.7072 37.4335 51.7072C35.5372 51.7072 33.9999 53.2445 33.9999 55.1408C33.9999 57.0372 35.5372 58.5744 37.4335 58.5744Z" fill="white"/>
<path d="M63.0841 77.5888C65.6776 77.5888 67.78 74.4638 67.78 70.6089C67.78 66.7539 65.6776 63.6289 63.0841 63.6289C60.4906 63.6289 58.3882 66.7539 58.3882 70.6089C58.3882 74.4638 60.4906 77.5888 63.0841 77.5888Z" fill="#A1BB5A"/>
</svg>
