<svg width="48" height="32" viewBox="0 0 48 32" fill="none" xmlns="http://www.w3.org/2000/svg">
<rect x="0.5" y="0.5" width="47" height="31" rx="3.5" fill="white"/>
<rect x="0.5" y="0.5" width="47" height="31" rx="3.5" stroke="#F9F7F6"/>
<path d="M20 14.5211L39.8499 14.3074L39.0817 16.9479C38.6189 18.5388 36.954 19.4533 35.3631 18.9905L20 14.5211Z" fill="#FD6020"/>
<path fill-rule="evenodd" clip-rule="evenodd" d="M40.8955 12.1478C42.3498 12.1478 43.1497 12.7925 43.1497 14.0103C43.2224 14.9416 42.5679 15.7296 41.6953 15.8729L43.6587 18.5234H42.1316L40.4592 15.9445H40.3137V18.5234H39.0776V12.1478H40.8955ZM40.3137 15.0849H40.6773C41.4772 15.0849 41.8408 14.7267 41.8408 14.082C41.8408 13.5089 41.4772 13.1507 40.6773 13.1507H40.3137V15.0849ZM34.7873 18.5234H38.2777V17.4488H36.0235V15.7296H38.205V14.655H36.0235V13.2223H38.2777V12.1478H34.7873V18.5234ZM31.1515 16.4459L29.479 12.1478H28.1701L30.8606 18.6667H31.5151L34.2056 12.1478H32.8967L31.1515 16.4459ZM16.3901 15.3714C16.3901 17.1623 17.8445 18.6667 19.6624 18.6667C20.2441 18.6667 20.7531 18.5234 21.2621 18.3085V16.8758C20.8985 17.3056 20.3895 17.5921 19.8078 17.5921C18.6443 17.5921 17.699 16.7325 17.699 15.5863V15.4431C17.6263 14.2969 18.5716 13.294 19.7351 13.2223C20.3168 13.2223 20.8985 13.5089 21.2621 13.9387V12.506C20.8258 12.2194 20.2441 12.1478 19.7351 12.1478C17.8445 12.0045 16.3901 13.5089 16.3901 15.3714ZM14.1359 14.5834C13.4088 14.2969 13.1906 14.1536 13.1906 13.7954C13.2633 13.3656 13.6269 13.0074 14.0632 13.0791C14.4268 13.0791 14.7904 13.294 15.0812 13.5805L15.7357 12.7209C15.2267 12.2911 14.5722 12.0045 13.9178 12.0045C12.8998 11.9329 12.0272 12.7209 11.9545 13.7238V13.7954C11.9545 14.6551 12.318 15.1565 13.4815 15.5147C13.7724 15.5863 14.0632 15.7296 14.3541 15.8729C14.5722 16.0161 14.7177 16.231 14.7177 16.5176C14.7177 17.019 14.2814 17.4489 13.8451 17.4489H13.7724C13.1906 17.4489 12.6816 17.0907 12.4635 16.5892L11.6636 17.3772C12.0999 18.1652 12.9725 18.595 13.8451 18.595C15.0085 18.6667 15.9538 17.807 16.0266 16.6609V16.446C15.9538 15.5863 15.5903 15.1565 14.1359 14.5834ZM9.9184 18.5234H11.1546V12.1478H9.9184V18.5234ZM4.17383 12.1478H5.99173H6.35531C8.1005 12.2194 9.48211 13.6522 9.40939 15.3714C9.40939 16.3027 8.97309 17.1623 8.24593 17.807C7.59149 18.3085 6.79161 18.595 5.99173 18.5234H4.17383V12.1478ZM5.77358 17.4488C6.35531 17.5205 7.00975 17.3056 7.44605 16.9474C7.88235 16.5176 8.1005 15.9445 8.1005 15.2998C8.1005 14.7267 7.88235 14.1536 7.44605 13.7238C7.00975 13.3656 6.35531 13.1507 5.77358 13.2223H5.41V17.4488H5.77358Z" fill="black"/>
<path fill-rule="evenodd" clip-rule="evenodd" d="M24.9707 12C23.1528 12 21.6257 13.4327 21.6257 15.2953C21.6257 17.0862 23.0801 18.5905 24.9707 18.6621C26.8613 18.7338 28.3156 17.2294 28.3883 15.3669C28.3156 13.5044 26.8613 12 24.9707 12V12Z" fill="#FD6020"/>
</svg>
