<svg width="24" height="24" viewBox="0 0 24 24" fill="none" xmlns="http://www.w3.org/2000/svg">
<path d="M6.20439 3.10305C6.20439 3.10305 4.04814 3.99368 3.54189 4.3593C2.92502 4.80555 2.17502 5.37368 1.77752 6.13305C1.39689 6.85868 1.24502 7.41368 1.21689 8.34368C1.18877 9.27368 2.18252 16.9968 2.18252 16.9968C2.18252 16.9968 7.56752 22.0706 8.4169 22.4549C9.26627 22.8393 10.5188 23.3099 12.0225 23.2818C13.5263 23.2537 14.5144 22.7906 15.09 22.5168C15.6638 22.2431 22.4775 12.1556 22.5338 11.3343C22.59 10.5131 22.6444 8.94743 22.6106 8.28555C22.575 7.6068 22.4363 7.06493 22.08 6.38055C21.7238 5.69618 21.1388 5.02868 20.7844 4.7268C20.4281 4.4268 15.9563 2.41868 14.6025 2.11493C10.6913 1.24305 6.20439 3.10305 6.20439 3.10305Z" fill="#CECECE"/>
<path d="M2.89499 5.45614C2.92124 6.37302 3.65999 6.79677 5.16561 7.56177C6.67124 8.32677 10.5 10.5711 12.0862 10.6255C13.6725 10.6799 19.5525 7.10614 20.4019 6.55677C21.2419 6.01302 21.3825 5.14489 20.5931 4.55239C19.4981 3.73302 14.6025 1.46239 13.5637 1.07989C13.0331 0.884892 11.6812 0.581142 10.6087 0.997392C9.76124 1.32552 4.38561 3.81364 3.86624 4.14177C3.34686 4.46989 2.88186 4.94427 2.89499 5.45614Z" fill="#EAEAEA"/>
<path d="M6.43874 3.58489C6.10499 3.20801 3.75562 4.43801 3.75562 5.48614C3.75562 6.50239 5.88749 7.79614 6.42187 7.31614C6.80624 6.97114 5.44499 5.89489 5.62312 5.27239C5.79937 4.64989 6.72374 3.90364 6.43874 3.58489Z" fill="white"/>
<path d="M8.76373 9.01489C8.39436 9.54926 10.755 10.6986 12.195 10.6986C13.5506 10.6986 15.765 9.37489 15.48 8.99051C15.0187 8.36801 13.8994 8.95301 12.1575 8.99051C11.1975 9.01114 9.14811 8.45801 8.76373 9.01489Z" fill="white"/>
<path d="M17.3269 7.31998C17.7881 7.62186 20.4187 6.28873 20.4712 5.48998C20.5237 4.69123 18.8362 3.73123 18.3562 4.06873C17.8762 4.40623 18.4987 4.65561 18.3394 5.24061C18.18 5.82561 16.7737 6.95811 17.3269 7.31998Z" fill="white"/>
<path d="M1.21499 8.4544C1.18686 9.42378 1.24499 15.3413 1.25811 16.1438C1.27124 17.0288 1.48874 18.0132 2.07749 18.5175C2.66624 19.0219 7.43436 22.0463 8.50686 22.5094C10.0087 23.1582 11.4694 22.4456 11.5744 20.8294C11.6794 19.2113 11.6156 14.2744 11.6156 13.6032C11.6156 12.9319 11.2781 11.9419 10.5431 11.4375C9.80811 10.9332 3.99561 7.5994 3.39936 7.25628C2.55936 6.7744 1.25811 7.00503 1.21499 8.4544Z" fill="#DFDFDF"/>
<path d="M13.2525 11.5012C12.6225 11.9999 12.3694 12.7199 12.3694 13.4962C12.3694 14.2724 12.3281 20.2612 12.3487 20.8706C12.3694 21.4799 13.2319 23.0981 14.5762 22.6987C15.9656 22.2862 17.7281 21.0393 18.9881 20.2818C20.2481 19.5262 21.2306 18.8849 21.6694 18.5249C22.2319 18.0656 22.6125 16.9537 22.6331 16.0087C22.6537 15.0843 22.6275 9.29806 22.6106 8.84431C22.5694 7.77931 22.1381 6.89993 20.9831 7.15118C19.8281 7.40243 14.1562 10.7868 13.2525 11.5012Z" fill="#B8B8B8"/>
<path d="M12.0544 7.34997C13.4845 7.34997 14.6438 6.51638 14.6438 5.4881C14.6438 4.45981 13.4845 3.62622 12.0544 3.62622C10.6243 3.62622 9.46503 4.45981 9.46503 5.4881C9.46503 6.51638 10.6243 7.34997 12.0544 7.34997Z" fill="#FE4E27"/>
<path d="M4.96689 10.4157C5.30439 11.357 5.20314 12.332 4.48127 12.5907C3.75939 12.8495 2.89502 12.2064 2.56314 11.2857C2.22377 10.3445 2.30814 9.36762 3.04877 9.11074C3.77439 8.86137 4.62939 9.47449 4.96689 10.4157Z" fill="#2F2F2F"/>
<path d="M9.71626 18.6749C10.1175 19.5899 10.095 20.6737 9.39376 20.9812C8.69251 21.2887 7.74189 20.6493 7.34627 19.753C6.94314 18.838 7.00314 17.8349 7.70439 17.5274C8.40752 17.2199 9.31502 17.7599 9.71626 18.6749Z" fill="#2F2F2F"/>
<path d="M19.1175 12.5551C19.7306 12.9039 20.7169 12.4707 21.225 11.582C21.7331 10.6914 21.6469 9.68823 21.0356 9.3376C20.4225 8.98885 19.4531 9.4201 18.945 10.3107C18.4369 11.1995 18.5044 12.2063 19.1175 12.5551Z" fill="#2F2F2F"/>
<path d="M16.695 16.6311C17.3175 16.9949 18.33 16.5618 18.8587 15.6561C19.3875 14.7524 19.3125 13.723 18.69 13.3593C18.0675 12.9955 17.0344 13.3986 16.5056 14.3024C15.9769 15.2099 16.0744 16.2674 16.695 16.6311Z" fill="#2F2F2F"/>
<path d="M14.2894 20.7975C14.8913 21.165 15.8906 20.76 16.425 19.8862C16.9594 19.0125 16.9031 18.0056 16.3013 17.6381C15.6994 17.2706 14.7675 17.5293 14.1525 18.5025C13.605 19.3668 13.6875 20.43 14.2894 20.7975Z" fill="#2F2F2F"/>
</svg>
