<svg width="35" height="14" viewBox="0 0 35 14" fill="none" xmlns="http://www.w3.org/2000/svg">
<path fill-rule="evenodd" clip-rule="evenodd" d="M16.3414 10.704V6.79112H18.4487C19.3122 6.79112 20.0411 6.51383 20.6352 5.96695L20.7778 5.82831C21.8632 4.69604 21.7919 2.93217 20.6352 1.88463C20.0569 1.33005 19.2647 1.02965 18.4487 1.04506H15.0659V10.704H16.3414ZM16.3415 5.60486V2.23117H18.4809C18.9404 2.23117 19.3762 2.40062 19.7011 2.70872C20.3904 3.35573 20.4063 4.43408 19.7407 5.1042C19.4158 5.4354 18.9563 5.62026 18.4809 5.60486H16.3415ZM26.7274 4.61128C26.1808 4.12602 25.4361 3.87954 24.4934 3.87954C23.2813 3.87954 22.3702 4.31088 21.7681 5.16586L22.8931 5.85138C23.305 5.26599 23.8675 4.9733 24.5805 4.9733C25.0321 4.9733 25.4678 5.13505 25.8085 5.42774C26.1412 5.70503 26.3313 6.10556 26.3313 6.5292V6.81419C25.8402 6.55231 25.2222 6.41366 24.4617 6.41366C23.5744 6.41366 22.8614 6.61393 22.3306 7.02216C21.7998 7.43039 21.5305 7.96957 21.5305 8.65509C21.5146 9.27899 21.7919 9.87209 22.2831 10.2726C22.7822 10.704 23.416 10.9196 24.1606 10.9196C25.04 10.9196 25.7372 10.5422 26.268 9.78736H26.3234V10.704H27.5434V6.62933C27.5434 5.77436 27.2741 5.09654 26.7274 4.61128ZM23.2656 9.48698C23.0042 9.30212 22.8457 9.00173 22.8457 8.67822C22.8457 8.3162 23.02 8.01581 23.3607 7.77703C23.7094 7.53825 24.1452 7.41501 24.6602 7.41501C25.3733 7.40731 25.9279 7.56136 26.3241 7.86946C26.3241 8.39323 26.1102 8.84768 25.6902 9.2328C25.3099 9.60252 24.7949 9.81049 24.2561 9.81049C23.8995 9.81819 23.5509 9.70265 23.2656 9.48698ZM30.2845 13.6078L34.5467 4.09521H33.1603L31.1877 8.83994H31.1639L29.1437 4.09521H27.7574L30.5539 10.2803L28.9695 13.6078H30.2845Z" fill="#3C4043"/>
<path d="M11.9381 5.94384C11.9381 5.56642 11.9064 5.18899 11.843 4.81927H6.46387V6.95287H9.5456C9.41885 7.63839 9.00689 8.25459 8.40481 8.63971V10.0262H10.2428C11.3202 9.06335 11.9381 7.63839 11.9381 5.94384Z" fill="#4285F4"/>
<path d="M6.4641 11.3664C8.001 11.3664 9.30025 10.8734 10.243 10.0262L8.40504 8.63971C7.89009 8.97862 7.23255 9.17119 6.4641 9.17119C4.97472 9.17119 3.71509 8.19297 3.26352 6.88354H1.37012V8.31621C2.33663 10.1879 4.30926 11.3664 6.4641 11.3664Z" fill="#34A853"/>
<path d="M3.26361 6.88355C3.02591 6.19803 3.02591 5.45089 3.26361 4.75766V3.3327H1.3699C0.553783 4.89631 0.553783 6.74491 1.3699 8.30851L3.26361 6.88355Z" fill="#FBBC04"/>
<path d="M6.4641 2.47002C7.28008 2.45462 8.06438 2.75501 8.65062 3.30189L10.2826 1.71518C9.24479 0.775473 7.88217 0.259405 6.4641 0.27481C4.30926 0.27481 2.33663 1.46099 1.37012 3.3327L3.26352 4.76537C3.71509 3.44824 4.97472 2.47002 6.4641 2.47002Z" fill="#EA4335"/>
</svg>
