<svg width="24" height="24" viewBox="0 0 24 24" fill="none" xmlns="http://www.w3.org/2000/svg">
<path d="M8.46484 12.1424C8.66809 12.3614 8.86984 12.5819 9.08284 12.7949C9.93147 13.6431 10.8258 14.4171 11.7588 15.1154C12.1466 14.5829 12.5793 14.0718 13.0605 13.5906C15.7987 10.8528 19.4718 9.62763 23.0527 9.90063C22.647 7.75525 21.6153 5.70513 19.9548 4.045C19.8873 3.9775 19.8176 3.91375 19.7486 3.84888C16.4377 5.04475 13.3282 6.9595 10.6743 9.61375C9.87034 10.4166 9.13422 11.2626 8.46484 12.1424Z" fill="#F76D57"/>
<path d="M7.95226 11.5769C8.61939 10.7103 9.35026 9.87706 10.1441 9.08318C12.7766 6.44993 15.8453 4.52506 19.1149 3.28456C16.0249 0.755555 11.9036 0.11993 8.29426 1.37581C8.19264 3.92618 7.33014 6.45068 5.70526 8.58218C6.36714 9.62281 7.11826 10.6233 7.95226 11.5769Z" fill="#F76D57"/>
<path d="M7.527 1.67773C6.26325 2.22486 5.07825 3.01161 4.04512 4.04473C3.897 4.19286 3.75525 4.34436 3.61725 4.49736C4.08225 5.66061 4.63762 6.79424 5.28525 7.88999C6.63225 6.02961 7.37925 3.87036 7.527 1.67773Z" fill="#F76D57"/>
<path d="M4.79062 8.52846C4.12912 7.44021 3.5565 6.31446 3.07237 5.15796C1.59525 7.08058 0.823499 9.36921 0.757874 11.6758C1.9455 11.1055 3.06037 10.3326 4.04512 9.34821C4.30875 9.08458 4.55625 8.80971 4.79062 8.52846Z" fill="#F76D57"/>
<path d="M5.2046 9.19653C5.0036 9.42866 4.79585 9.65778 4.57535 9.87828C3.44097 11.0127 2.1446 11.8853 0.761597 12.5018C0.877472 15.0945 1.88622 17.6528 3.78485 19.6812C4.58622 17.0438 5.8196 14.5095 7.49322 12.1935C6.6476 11.2395 5.88297 10.2383 5.2046 9.19653Z" fill="#F76D57"/>
<path d="M8.55302 13.3251C8.36702 13.1398 8.19189 12.9463 8.01264 12.7566C6.35402 15.0827 5.15027 17.6331 4.3924 20.2843C5.83689 21.6122 7.54314 22.4953 9.33714 22.9307C9.27377 20.431 9.93677 17.9151 11.3355 15.7333C10.365 15.0081 9.43427 14.2071 8.55302 13.3251Z" fill="#F76D57"/>
<path d="M10.0927 23.085C13.5693 23.6798 17.2713 22.6392 19.9548 19.9545C19.965 19.9452 19.9743 19.9339 19.9845 19.9238C17.1536 19.1678 14.427 17.9213 11.9426 16.176C10.611 18.2715 9.99785 20.6892 10.0927 23.085Z" fill="#F76D57"/>
<path d="M23.1675 10.6638C19.7434 10.3526 16.212 11.5001 13.5908 14.1209C13.1385 14.5736 12.7324 15.0547 12.3671 15.5557C14.8916 17.3294 17.6734 18.5741 20.5601 19.2948C22.659 16.8371 23.5279 13.6923 23.1675 10.6638Z" fill="#F76D57"/>
</svg>
