<svg width="24" height="24" viewBox="0 0 24 24" fill="none" xmlns="http://www.w3.org/2000/svg">
<g clip-path="url(#clip0_0_9074)">
<path d="M10.3587 17.366C10.6498 17.6564 11.1211 17.6564 11.4114 17.366C11.7025 17.0749 11.7025 16.6036 11.4114 16.3132L7.68877 12.5906C7.39765 12.3002 6.92637 12.3002 6.636 12.5906C6.34489 12.8817 6.34489 13.353 6.636 13.6433L10.3587 17.366Z" fill="#66CCFF"/>
<path d="M2.91333 14.3879L9.61412 21.0886L11.1032 22.5777C11.3943 22.8681 11.8656 22.8681 12.156 22.5777C12.4463 22.2866 12.4463 21.8153 12.156 21.5249L10.6669 20.0359L3.9661 13.3351L2.47704 11.846C2.18592 11.5549 1.71463 11.5549 1.42427 11.846C1.13315 12.1371 1.13315 12.6084 1.42427 12.8988L2.91333 14.3879Z" fill="#66CCFF"/>
<path d="M8.43332 23.3222C8.72443 23.0311 8.72443 22.5598 8.43332 22.2694L1.73253 15.5686C1.44142 15.2782 0.970127 15.2782 0.67976 15.5686C0.388648 15.8597 0.388648 16.331 0.67976 16.6214L7.38055 23.3222C7.67092 23.6133 8.14295 23.6133 8.43332 23.3222Z" fill="#66CCFF"/>
<path d="M13.3368 3.96444L20.0376 10.6652L21.5267 12.1543C21.817 12.4447 22.2891 12.4447 22.5794 12.1543C22.8698 11.8632 22.8698 11.3919 22.5794 11.1015L21.0904 9.61246L14.3896 2.91167L12.9005 1.42261C12.6094 1.13224 12.1381 1.13224 11.8477 1.42261C11.5566 1.71372 11.5566 2.18501 11.8477 2.47538L13.3368 3.96444Z" fill="#66CCFF"/>
<path d="M17.3677 11.4098C17.6581 11.1187 17.6581 10.6474 17.3677 10.357L13.6451 6.63435C13.354 6.34324 12.8827 6.34324 12.5923 6.63435C12.3012 6.92546 12.3012 7.39675 12.5923 7.68712L16.315 11.4098C16.6053 11.7009 17.0774 11.7009 17.3677 11.4098Z" fill="#66CCFF"/>
<path d="M22.2712 8.43161C22.5615 8.72272 23.0336 8.72272 23.3239 8.43161C23.6143 8.1405 23.6143 7.66921 23.3239 7.37884L16.6232 0.678051C16.332 0.386939 15.8608 0.386939 15.5704 0.678051C15.2793 0.969163 15.2793 1.44045 15.5704 1.73082L22.2712 8.43161Z" fill="#66CCFF"/>
<path d="M21.5527 5.60754L21.7709 5.38939C22.2057 4.95533 22.4261 4.37906 22.4253 3.81024C22.4261 3.24067 22.2057 2.66515 21.7709 2.23108C21.3368 1.79628 20.7605 1.5759 20.1917 1.57664C19.6222 1.5759 19.0466 1.79628 18.6126 2.23108L18.3944 2.44923L16.6232 0.67799C16.1705 0.225315 15.5704 0.00121044 14.98 0.00195497C14.3896 0.00121044 13.7895 0.225315 13.3368 0.67799C13.1261 0.887949 12.9705 1.13141 12.8581 1.38753C12.4106 0.961657 11.8306 0.745743 11.2573 0.746487C10.6669 0.745743 10.0668 0.969847 9.61415 1.42252C9.15627 1.87818 8.93291 2.48125 8.93439 3.06571C8.93291 3.65016 9.15627 4.25323 9.61415 4.70889L12.8849 7.97962L7.98139 12.8831L4.71066 9.61238C4.25799 9.1597 3.65789 8.9356 3.06748 8.93634C2.47707 8.9356 1.87697 9.1597 1.4243 9.61238C0.96641 10.068 0.743051 10.6711 0.74454 11.2556C0.742306 11.8236 0.958965 12.4066 1.39079 12.8578C1.13319 12.9695 0.889723 13.1251 0.679765 13.335C0.221878 13.7907 -0.00148167 14.3938 7.39567e-06 14.9782C-0.00148167 15.5627 0.221878 16.1658 0.679765 16.6214L2.45101 18.3927L2.21797 18.6257C1.78316 19.0597 1.56278 19.636 1.56353 20.2048C1.56278 20.7737 1.78316 21.3499 2.21797 21.784C2.2954 21.8614 2.44207 21.918 2.59098 21.9545C2.97516 22.2694 3.3988 22.4384 3.88349 22.4377C4.45231 22.4384 4.9854 22.2181 5.41946 21.7832H5.39712L5.61825 21.5591L7.37981 23.3207C7.83249 23.7734 8.43258 23.9975 9.02299 23.9967C9.61341 23.9975 10.2135 23.7734 10.6662 23.3207C10.8761 23.1108 11.0317 22.8673 11.1434 22.6097C11.5909 23.037 12.1716 23.253 12.7457 23.2522C13.3361 23.253 13.9362 23.0289 14.3888 22.5762C14.8415 22.1235 15.0656 21.5234 15.0649 20.933C15.0656 20.3426 14.8415 19.7425 14.3888 19.2898L11.133 16.034L16.0365 11.1305L19.2923 14.3863C19.745 14.839 20.3451 15.0631 20.9355 15.0624C21.5259 15.0631 22.126 14.839 22.5787 14.3863C23.0314 13.9336 23.2555 13.3336 23.2547 12.7431C23.2555 12.1691 23.0396 11.5891 22.6122 11.1409C22.8698 11.0292 23.1133 10.8736 23.3232 10.6637C23.7759 10.211 24 9.61089 23.9993 9.02048C24 8.43006 23.7759 7.82997 23.3232 7.37729L21.5527 5.60754ZM3.08833 20.557C3.04663 20.5309 2.99824 20.5138 2.91634 20.5138H3.08833V20.557ZM4.32276 20.732C4.17534 20.8786 3.98921 20.9494 3.79638 20.9501C3.6497 20.9494 3.51346 20.895 3.38912 20.8109L3.44198 20.732C3.29531 20.5846 3.13896 20.3984 3.13747 20.2056C3.13821 20.0128 3.16576 19.8266 3.31243 19.6792H3.29084L3.27967 19.6688L3.49782 19.4506L4.55059 20.5034L4.32276 20.732ZM22.2712 9.61238C22.1134 9.77022 21.9019 9.85137 21.6808 9.85212C21.4597 9.85137 21.2482 9.77022 21.0904 9.61238C21.0881 9.61015 21.0859 9.61015 21.0837 9.60791C21.0152 9.5409 20.9355 9.4873 20.8477 9.45082C20.666 9.37636 20.462 9.37636 20.2803 9.45082C20.1902 9.48804 20.1068 9.54239 20.0376 9.61238C19.9684 9.68162 19.9133 9.76501 19.8768 9.8551C19.8023 10.0368 19.8023 10.2408 19.8768 10.4224C19.914 10.5125 19.9684 10.5959 20.0383 10.6651L21.5274 12.1542C21.6853 12.3121 21.7664 12.5235 21.7672 12.7446C21.7664 12.9658 21.6853 13.1772 21.5274 13.335C21.3696 13.4929 21.1581 13.574 20.937 13.5748C20.7159 13.574 20.5044 13.4929 20.3466 13.335L16.5644 9.55282C16.2732 9.2617 15.802 9.2617 15.5116 9.55282L9.55533 15.5091C9.41685 15.6476 9.33719 15.8396 9.33719 16.0355C9.33719 16.2313 9.41685 16.4234 9.55533 16.5618L13.3376 20.3441C13.4954 20.5019 13.5766 20.7134 13.5773 20.9345C13.5766 21.1556 13.4954 21.3671 13.3376 21.5249C13.1797 21.6827 12.9683 21.7639 12.7471 21.7646C12.526 21.7639 12.3146 21.6827 12.1567 21.5249L10.6677 20.0358C10.5984 19.9658 10.515 19.9115 10.4249 19.8743C10.3349 19.837 10.2388 19.8177 10.1428 19.8177C10.1428 19.8177 10.142 19.8177 10.1413 19.8177C10.0445 19.8177 9.94845 19.837 9.85761 19.8743C9.76753 19.9115 9.68414 19.9658 9.6149 20.0358C9.54566 20.1051 9.49056 20.1885 9.45408 20.2785C9.41685 20.3694 9.39749 20.4654 9.39749 20.5622C9.39749 20.563 9.39749 20.563 9.39749 20.5637C9.39749 20.6598 9.41685 20.7558 9.45408 20.8459C9.49056 20.9337 9.54417 21.0141 9.61117 21.0826C9.61341 21.0849 9.61341 21.0871 9.61564 21.0893C9.77348 21.2472 9.85464 21.4586 9.85538 21.6798C9.85464 21.9009 9.77348 22.1123 9.61564 22.2702C9.4578 22.428 9.24635 22.5092 9.02523 22.5099C8.8041 22.5092 8.59265 22.428 8.43481 22.2702L1.73402 15.5694C1.56501 15.3989 1.49131 15.1979 1.48907 14.9782C1.49131 14.7586 1.56501 14.5576 1.73253 14.3878C1.89037 14.23 2.10257 14.1488 2.32295 14.1481C2.54407 14.1488 2.75552 14.23 2.91336 14.3878C2.9156 14.39 2.91783 14.39 2.92006 14.3923C2.98856 14.4593 3.06822 14.5129 3.15608 14.5494C3.24393 14.5859 3.337 14.603 3.43081 14.6045C3.43379 14.6045 3.43677 14.606 3.43975 14.606C3.44198 14.606 3.44421 14.6045 3.44645 14.6045C3.541 14.6037 3.63481 14.5851 3.72341 14.5486C3.8135 14.5114 3.89689 14.4571 3.96613 14.3871C4.03612 14.3171 4.09047 14.2344 4.12769 14.1443C4.20215 13.9627 4.20215 13.7587 4.12769 13.577C4.09047 13.4869 4.03612 13.4035 3.96613 13.3343L2.47707 11.8452C2.30955 11.6762 2.23584 11.4752 2.2336 11.2556C2.23584 11.0359 2.30955 10.8349 2.47707 10.6651C2.63491 10.5073 2.8471 10.4262 3.06748 10.4254C3.28861 10.4262 3.50005 10.5073 3.65789 10.6651L7.45501 14.4623C7.59349 14.6007 7.78558 14.6804 7.98139 14.6804C8.17721 14.6804 8.36929 14.6007 8.50778 14.4623L14.464 8.506C14.6025 8.36752 14.6822 8.17543 14.6822 7.97962C14.6822 7.78381 14.6025 7.59172 14.464 7.45324L10.6669 3.65612C10.4994 3.48637 10.4257 3.28534 10.4235 3.06571C10.4257 2.84607 10.4994 2.64505 10.6669 2.47529C10.8248 2.31745 11.037 2.2363 11.2573 2.23555C11.4785 2.2363 11.6899 2.31745 11.8477 2.47529L13.3368 3.96436C13.3413 3.96882 13.3465 3.96957 13.351 3.97404C13.418 4.03806 13.4947 4.09093 13.5795 4.12592C13.6696 4.16315 13.7657 4.1825 13.8617 4.1825C13.9585 4.1825 14.056 4.16315 14.1469 4.12592C14.237 4.08869 14.3203 4.03434 14.3896 3.96436C14.4588 3.89511 14.5139 3.81173 14.5511 3.72164C14.5884 3.63081 14.6077 3.53476 14.6077 3.43797C14.6077 3.43723 14.6077 3.43723 14.6077 3.43648C14.6077 3.34044 14.5884 3.24439 14.5511 3.15431C14.5162 3.06868 14.4625 2.99125 14.3985 2.9235C14.3948 2.91978 14.394 2.91457 14.3903 2.91084C14.2221 2.74183 14.1484 2.54081 14.1461 2.32117C14.1484 2.10154 14.2221 1.90051 14.3896 1.73076C14.5474 1.57292 14.7596 1.49176 14.98 1.49102C15.2011 1.49176 15.4126 1.57292 15.5704 1.73076L17.868 4.02839C18.0065 4.16687 18.1986 4.24653 18.3944 4.24653C18.5902 4.24653 18.7823 4.16687 18.9208 4.02839L19.6653 3.28385C19.8128 3.13718 19.9989 3.06645 20.1917 3.06571C20.3846 3.06645 20.5707 3.13718 20.7181 3.28385C20.8648 3.43127 20.9355 3.6174 20.9363 3.81024C20.9355 4.00307 20.8648 4.18921 20.7181 4.33662L19.9736 5.08115C19.8351 5.21964 19.7554 5.41173 19.7554 5.60754C19.7554 5.80335 19.8351 5.99544 19.9736 6.13392L22.2712 8.43155C22.429 8.58939 22.5102 8.80084 22.5109 9.02197C22.5102 9.24309 22.429 9.45454 22.2712 9.61238Z" fill="#4E5F80"/>
</g>
<defs>
<clipPath id="clip0_0_9074">
<rect width="24" height="24" fill="white"/>
</clipPath>
</defs>
</svg>
