<svg width="24" height="24" viewBox="0 0 24 24" fill="none" xmlns="http://www.w3.org/2000/svg">
<path d="M11.6364 23.9998C18.063 23.9998 23.2727 18.79 23.2727 12.3634C23.2727 5.93683 18.063 0.727051 11.6364 0.727051C5.20978 0.727051 0 5.93683 0 12.3634C0 18.79 5.20978 23.9998 11.6364 23.9998Z" fill="#0052B4"/>
<path d="M11.6364 0.727051C18.0629 0.727051 23.2727 5.9368 23.2727 12.3634C23.2727 18.79 18.0629 23.9998 11.6364 23.9998" fill="#006DF0"/>
<path d="M11.6364 21.0908C16.4563 21.0908 20.3637 17.1834 20.3637 12.3635C20.3637 7.54356 16.4563 3.63623 11.6364 3.63623C6.81645 3.63623 2.90912 7.54356 2.90912 12.3635C2.90912 17.1834 6.81645 21.0908 11.6364 21.0908Z" fill="#FFDA44"/>
<path d="M11.6364 18.1818C14.8497 18.1818 17.4545 15.5769 17.4545 12.3636C17.4545 9.1503 14.8497 6.54541 11.6364 6.54541C8.42307 6.54541 5.81818 9.1503 5.81818 12.3636C5.81818 15.5769 8.42307 18.1818 11.6364 18.1818Z" fill="#0052B4"/>
<path d="M11.6364 6.54541C14.8497 6.54541 17.4545 9.15028 17.4545 12.3636C17.4545 15.5769 14.8497 18.1818 11.6364 18.1818" fill="#006DF0"/>
<path d="M11.6364 15.2728C13.243 15.2728 14.5455 13.9703 14.5455 12.3637C14.5455 10.757 13.243 9.45459 11.6364 9.45459C10.0297 9.45459 8.72729 10.757 8.72729 12.3637C8.72729 13.9703 10.0297 15.2728 11.6364 15.2728Z" fill="#FFDA44"/>
<path d="M17.5717 4.88525L16.9877 5.46933L14.9062 7.55078L12.7724 9.6846L11.1435 11.3135C10.7175 11.7395 10.7175 12.4303 11.1435 12.8563C11.5695 13.2823 12.2602 13.2823 12.6863 12.8563L14.3153 11.2274L16.4491 9.09369L18.5305 7.01224L19.1146 6.42816L17.5717 4.88525Z" fill="white"/>
<path d="M17.5717 4.88545L17.3146 6.68538L20.4002 3.59978L20.9145 0L18.1763 2.73811L17.8288 3.0856L17.5717 4.88545Z" fill="#FF5023"/>
<path d="M17.3146 6.68523L19.1146 6.42814L20.9144 6.17098L21.2619 5.82349L24 3.08545L20.4002 3.59963L17.3146 6.68523Z" fill="#FF9811"/>
</svg>
