<svg width="25" height="24" viewBox="0 0 25 24" fill="none" xmlns="http://www.w3.org/2000/svg">
<g clip-path="url(#clip0_665_700)">
<path d="M12.5413 14.9266C14.1881 14.9266 15.523 13.5916 15.523 11.9449C15.523 10.2982 14.1881 8.96326 12.5413 8.96326C10.8946 8.96326 9.55969 10.2982 9.55969 11.9449C9.55969 13.5916 10.8946 14.9266 12.5413 14.9266Z" stroke="#A1BB5A" stroke-width="2.38532" stroke-linecap="round" stroke-linejoin="round"/>
<path d="M12.5413 20.8899V20.8998" stroke="#A1BB5A" stroke-width="2.38532" stroke-linecap="round" stroke-linejoin="round"/>
<path d="M3.59631 8.96326V8.9732" stroke="#A1BB5A" stroke-width="2.38532" stroke-linecap="round" stroke-linejoin="round"/>
<path d="M21.4862 8.96326V8.9732" stroke="#A1BB5A" stroke-width="2.38532" stroke-linecap="round" stroke-linejoin="round"/>
<path d="M8.56573 19.9954C7.20942 19.3339 6.04252 18.3399 5.17364 17.1061C4.30476 15.8723 3.76215 14.4388 3.59631 12.9388" stroke="#A1BB5A" stroke-width="2.38532" stroke-linecap="round" stroke-linejoin="round"/>
<path d="M16.5168 19.9954C17.8732 19.3339 19.0401 18.3399 19.9089 17.1061C20.7778 15.8723 21.3204 14.4388 21.4863 12.9388" stroke="#A1BB5A" stroke-width="2.38532" stroke-linecap="round" stroke-linejoin="round"/>
<path d="M6.77673 4.98773C8.37499 3.67973 10.3766 2.96509 12.4419 2.96509C14.5071 2.96509 16.5088 3.67973 18.107 4.98773" stroke="#A1BB5A" stroke-width="2.38532" stroke-linecap="round" stroke-linejoin="round"/>
</g>
<defs>
<clipPath id="clip0_665_700">
<rect width="23.8532" height="23.8532" fill="white" transform="translate(0.614624 0.0183105)"/>
</clipPath>
</defs>
</svg>
