<svg width="24" height="24" viewBox="0 0 24 24" fill="none" xmlns="http://www.w3.org/2000/svg">
<path d="M24 20.25H0V2.25C0 1.00725 1.00725 0 2.25 0H21.75C22.9928 0 24 1.00725 24 2.25V20.25Z" fill="#65C3AB"/>
<path d="M21.75 24H2.25C1.00725 24 0 22.9927 0 21.75V20.25H24V21.75C24 22.9927 22.9928 24 21.75 24Z" fill="#98D3BC"/>
<path d="M22.5 20.25H0V2.25C0 1.00725 1.00725 0 2.25 0H20.25C21.4928 0 22.5 1.00725 22.5 2.25V20.25Z" fill="#98D3BC"/>
<path d="M20.25 24H2.25C1.00725 24 0 22.9927 0 21.75V20.25H22.5V21.75C22.5 22.9927 21.4928 24 20.25 24Z" fill="#CCE2CD"/>
<path d="M18.75 17.25H3.75C3.336 17.25 3 16.914 3 16.5V3.75C3 3.336 3.336 3 3.75 3H18.75C19.164 3 19.5 3.336 19.5 3.75V16.5C19.5 16.914 19.164 17.25 18.75 17.25Z" fill="#FFF2DF"/>
<path d="M12.75 21.75H9.75C9.336 21.75 9 21.414 9 21V20.25H13.5V21C13.5 21.414 13.164 21.75 12.75 21.75Z" fill="#65C3AB"/>
<path d="M6.75 6.75C6.75 6.336 7.086 6 7.5 6H15C15.414 6 15.75 6.336 15.75 6.75C15.75 7.164 15.414 7.5 15 7.5H7.5C7.086 7.5 6.75 7.164 6.75 6.75ZM15 9H7.5C7.086 9 6.75 9.336 6.75 9.75C6.75 10.164 7.086 10.5 7.5 10.5H15C15.414 10.5 15.75 10.164 15.75 9.75C15.75 9.336 15.414 9 15 9ZM15 12H7.5C7.086 12 6.75 12.336 6.75 12.75C6.75 13.164 7.086 13.5 7.5 13.5H15C15.414 13.5 15.75 13.164 15.75 12.75C15.75 12.336 15.414 12 15 12Z" fill="#67625D"/>
</svg>
