<svg width="24" height="24" viewBox="0 0 24 24" fill="none" xmlns="http://www.w3.org/2000/svg">
<path d="M12 21.1485C17.0494 21.1485 21.1428 17.0551 21.1428 12.0057C21.1428 6.95618 17.0494 2.86279 12 2.86279C6.95053 2.86279 2.85712 6.95618 2.85712 12.0057C2.85712 17.0551 6.95053 21.1485 12 21.1485Z" fill="url(#paint0_radial_0_9000)"/>
<path opacity="0.5" d="M12 21.1485C17.0494 21.1485 21.1428 17.0551 21.1428 12.0057C21.1428 6.95618 17.0494 2.86279 12 2.86279C6.95053 2.86279 2.85712 6.95618 2.85712 12.0057C2.85712 17.0551 6.95053 21.1485 12 21.1485Z" fill="url(#paint1_radial_0_9000)"/>
<path opacity="0.24" d="M12 21.1485C17.0494 21.1485 21.1428 17.0551 21.1428 12.0057C21.1428 6.95618 17.0494 2.86279 12 2.86279C6.95053 2.86279 2.85712 6.95618 2.85712 12.0057C2.85712 17.0551 6.95053 21.1485 12 21.1485Z" fill="url(#paint2_radial_0_9000)"/>
<path opacity="0.24" d="M12 21.1485C17.0494 21.1485 21.1428 17.0551 21.1428 12.0057C21.1428 6.95618 17.0494 2.86279 12 2.86279C6.95053 2.86279 2.85712 6.95618 2.85712 12.0057C2.85712 17.0551 6.95053 21.1485 12 21.1485Z" fill="url(#paint3_radial_0_9000)"/>
<path d="M14.4458 7.93718C14.4515 7.57148 14.8515 7.34861 15.5315 7.36004C16.1086 7.37147 17.3772 7.70861 18.2344 8.84576C18.3944 9.05717 18.1429 9.16574 17.9887 9.02861C17.4572 8.56574 16.0229 7.95434 14.8972 8.05718C14.4458 8.09717 14.4458 7.93718 14.4458 7.93718Z" fill="url(#paint4_linear_0_9000)"/>
<path d="M8.18852 12.3256C8.18852 12.3256 6.66278 12.2284 6.19994 11.0913C6.17135 11.017 6.15422 10.9427 6.15422 10.8685C6.14852 10.7142 6.28565 10.5484 6.55994 10.6856C8.2628 11.5427 9.20564 11.0799 9.91421 10.7542C10.1885 10.6285 10.4457 10.9027 10.3714 11.1542C10.3485 11.2285 10.3371 11.3027 10.2971 11.3713C9.71423 12.4285 8.18852 12.3256 8.18852 12.3256Z" fill="url(#paint5_radial_0_9000)"/>
<path opacity="0.16" d="M13.5258 8.22297H12.1429L13.7144 5.9601C13.8001 5.8401 13.8115 5.68011 13.743 5.54868C13.6744 5.41725 13.5372 5.33154 13.3887 5.33154H11.463C11.2401 5.33154 11.1201 5.50869 11.1201 5.73153C11.1201 5.9544 11.2401 6.13152 11.463 6.13152H12.6229L11.0515 8.39439C10.9658 8.51439 10.9544 8.67438 11.0229 8.80581C11.0915 8.93724 11.2287 9.02295 11.3772 9.02295H13.5201C13.743 9.02295 13.863 8.84583 13.863 8.62296C13.863 8.40009 13.7487 8.22297 13.5258 8.22297Z" fill="#612D5B"/>
<path d="M12 18.2343C12.9783 18.2343 13.7715 17.5921 13.7715 16.8C13.7715 16.0079 12.9783 15.3657 12 15.3657C11.0217 15.3657 10.2286 16.0079 10.2286 16.8C10.2286 17.5921 11.0217 18.2343 12 18.2343Z" fill="url(#paint6_radial_0_9000)"/>
<path d="M12 15.8057C12.76 15.8057 13.4228 16.1543 13.76 16.6629C13.6743 15.9314 12.92 15.3657 12 15.3657C11.08 15.3657 10.32 15.9372 10.24 16.6629C10.5771 16.1543 11.24 15.8057 12 15.8057Z" fill="url(#paint7_linear_0_9000)"/>
<path d="M10.2514 10.7885C10.1656 10.7199 10.0399 10.6914 9.91421 10.7485C9.21134 11.0742 8.26277 11.5428 6.55991 10.68C6.43421 10.6171 6.33707 10.6171 6.26849 10.6514C6.89135 11.4285 9.27422 11.8971 10.2514 10.7885Z" fill="url(#paint8_linear_0_9000)"/>
<path d="M15.8113 12.3258C15.8113 12.3258 17.337 12.2287 17.7999 11.0916C17.8284 11.0173 17.8456 10.943 17.8456 10.8687C17.8513 10.7144 17.7142 10.5487 17.4399 10.6859C15.737 11.543 14.7942 11.0801 14.0856 10.7544C13.8113 10.6287 13.5542 10.903 13.6284 11.1544C13.6513 11.2287 13.6627 11.303 13.7028 11.3716C14.2856 12.4287 15.8113 12.3258 15.8113 12.3258Z" fill="url(#paint9_radial_0_9000)"/>
<path d="M13.7487 10.7885C13.8344 10.7199 13.9601 10.6914 14.0858 10.7485C14.7886 11.0742 15.7372 11.5428 17.4401 10.68C17.5658 10.6171 17.6629 10.6171 17.7315 10.6514C17.1086 11.4285 14.7258 11.8971 13.7487 10.7885Z" fill="url(#paint10_linear_0_9000)"/>
<path d="M9.5543 7.93718C9.54857 7.57145 9.14858 7.34861 8.46857 7.36004C7.89143 7.37147 6.62288 7.70861 5.76572 8.84573C5.60573 9.05717 5.85716 9.16574 6.01145 9.02861C6.54287 8.56574 7.97717 7.95431 9.10286 8.05718C9.5543 8.09717 9.5543 7.93718 9.5543 7.93718Z" fill="url(#paint11_linear_0_9000)"/>
<path opacity="0.16" d="M16.3601 3.96582L14.6858 6.38298C14.5944 6.51441 14.5829 6.68583 14.6572 6.82869C14.7315 6.97155 14.8801 7.05726 15.0344 7.05726H17.6401C17.8744 7.05726 18.0115 6.86298 18.0115 6.62868C18.0115 6.39441 17.8744 6.2001 17.6401 6.2001H15.8515L17.0915 4.41153C16.8572 4.25154 16.6115 4.10298 16.3601 3.96582Z" fill="#612D5B"/>
<path opacity="0.24" d="M15.4627 3.54285C15.2456 3.45141 15.017 3.3714 14.7942 3.29712C14.8456 3.43998 14.9656 3.54285 15.137 3.54285H15.4627Z" fill="#612D5B"/>
<path opacity="0.16" d="M19.5029 6.78271L18.8286 7.75414C18.7486 7.86271 18.72 8.00557 18.7543 8.137C18.8057 8.34841 18.9943 8.48557 19.2 8.48557H19.2115C19.68 8.48557 20.0858 8.537 20.52 8.67985C20.2514 7.99985 19.9086 7.36555 19.5029 6.78271Z" fill="#612D5B"/>
<path d="M13.2971 8.85157H11.1542C11.0056 8.85157 10.8685 8.77159 10.7999 8.63443C10.7313 8.4973 10.7428 8.34301 10.8285 8.22301L12.3999 5.96014H11.2399C11.0171 5.96014 10.8971 5.78302 10.8971 5.56015C10.8971 5.33728 11.0171 5.16016 11.2399 5.16016H13.1656C13.3142 5.16016 13.4513 5.24014 13.5199 5.3773C13.5885 5.51443 13.577 5.66872 13.4913 5.78872L11.9199 8.05159H13.3028C13.5256 8.05159 13.6456 8.22871 13.6456 8.45158C13.6456 8.67445 13.5199 8.85157 13.2971 8.85157Z" fill="url(#paint12_linear_0_9000)"/>
<path d="M17.2972 6.88584H14.6915C14.5315 6.88584 14.3829 6.80013 14.3143 6.65727C14.2458 6.51441 14.2515 6.34299 14.3429 6.21156L16.3086 3.37155H14.7886C14.5543 3.37155 14.4172 3.17727 14.4172 2.94298C14.4172 2.70869 14.5543 2.5144 14.7886 2.5144H17.1258C17.2858 2.5144 17.4343 2.60012 17.5029 2.74298C17.5715 2.88583 17.5658 3.05727 17.4743 3.1887L15.5029 6.02868H17.2915C17.5258 6.02868 17.6629 6.22299 17.6629 6.45726C17.6629 6.69156 17.5315 6.88584 17.2972 6.88584Z" fill="url(#paint13_linear_0_9000)"/>
<path d="M21.8057 8.25152H18.8571C18.6857 8.25152 18.5314 8.15438 18.4514 8.00582C18.3714 7.85723 18.3829 7.67438 18.48 7.53152L20.7428 4.27439H18.9714C18.72 4.27439 18.5714 4.06868 18.5714 3.81725C18.5714 3.56582 18.72 3.36011 18.9714 3.36011H21.6171C21.7886 3.36011 21.9428 3.45725 22.0228 3.60581C22.1029 3.7544 22.0914 3.93725 21.9943 4.08011L19.7314 7.33724H21.8057C22.0571 7.33724 22.2057 7.54295 22.2057 7.79438C22.2057 8.04581 22.0571 8.25152 21.8057 8.25152Z" fill="url(#paint14_linear_0_9000)"/>
<defs>
<radialGradient id="paint0_radial_0_9000" cx="0" cy="0" r="1" gradientUnits="userSpaceOnUse" gradientTransform="translate(10.2011 8.30003) scale(11.0297 11.0297)">
<stop stop-color="#FFE030"/>
<stop offset="1" stop-color="#FFB92E"/>
</radialGradient>
<radialGradient id="paint1_radial_0_9000" cx="0" cy="0" r="1" gradientUnits="userSpaceOnUse" gradientTransform="translate(10.2011 8.30003) scale(8.67753 8.67753)">
<stop stop-color="#FFEA5F"/>
<stop offset="1" stop-color="#FFBC47" stop-opacity="0"/>
</radialGradient>
<radialGradient id="paint2_radial_0_9000" cx="0" cy="0" r="1" gradientUnits="userSpaceOnUse" gradientTransform="translate(7.01887 14.2798) rotate(-2.7703) scale(3.8457 3.0429)">
<stop stop-color="#FF4C00"/>
<stop offset="0.1542" stop-color="#FF4C00"/>
<stop offset="0.1795" stop-color="#FF4C00"/>
<stop offset="0.3996" stop-color="#FB4C0B" stop-opacity="0.7318"/>
<stop offset="0.7799" stop-color="#EF4B27" stop-opacity="0.2683"/>
<stop offset="1" stop-color="#E74A3A" stop-opacity="0"/>
</radialGradient>
<radialGradient id="paint3_radial_0_9000" cx="0" cy="0" r="1" gradientUnits="userSpaceOnUse" gradientTransform="translate(16.9709 14.2798) rotate(-177.23) scale(3.8457 3.0429)">
<stop stop-color="#FF4C00"/>
<stop offset="0.1542" stop-color="#FF4C00"/>
<stop offset="0.1795" stop-color="#FF4C00"/>
<stop offset="0.3996" stop-color="#FB4C0B" stop-opacity="0.7318"/>
<stop offset="0.7799" stop-color="#EF4B27" stop-opacity="0.2683"/>
<stop offset="1" stop-color="#E74A3A" stop-opacity="0"/>
</radialGradient>
<linearGradient id="paint4_linear_0_9000" x1="16.3717" y1="8.57732" x2="16.3873" y2="7.61471" gradientUnits="userSpaceOnUse">
<stop offset="0.00132565" stop-color="#3C2200"/>
<stop offset="1" stop-color="#7A4400"/>
</linearGradient>
<radialGradient id="paint5_radial_0_9000" cx="0" cy="0" r="1" gradientUnits="userSpaceOnUse" gradientTransform="translate(8.2277 11.4603) rotate(-176.151) scale(1.64316 0.792762)">
<stop offset="0.00132565" stop-color="#7A4400"/>
<stop offset="1" stop-color="#643800"/>
</radialGradient>
<radialGradient id="paint6_radial_0_9000" cx="0" cy="0" r="1" gradientUnits="userSpaceOnUse" gradientTransform="translate(11.8906 16.8818) rotate(70.3551) scale(1.77441 1.3611)">
<stop offset="0.00132565" stop-color="#7A4400"/>
<stop offset="1" stop-color="#643800"/>
</radialGradient>
<linearGradient id="paint7_linear_0_9000" x1="12" y1="14.6869" x2="12" y2="17.0257" gradientUnits="userSpaceOnUse">
<stop offset="0.00132565" stop-color="#3C2200"/>
<stop offset="1" stop-color="#512D00"/>
</linearGradient>
<linearGradient id="paint8_linear_0_9000" x1="7.96781" y1="9.96385" x2="8.63972" y2="11.7136" gradientUnits="userSpaceOnUse">
<stop offset="0.00132565" stop-color="#3C2200"/>
<stop offset="1" stop-color="#512D00"/>
</linearGradient>
<radialGradient id="paint9_radial_0_9000" cx="0" cy="0" r="1" gradientUnits="userSpaceOnUse" gradientTransform="translate(15.772 11.4606) rotate(-3.84889) scale(1.64315 0.792762)">
<stop offset="0.00132565" stop-color="#7A4400"/>
<stop offset="1" stop-color="#643800"/>
</radialGradient>
<linearGradient id="paint10_linear_0_9000" x1="16.0322" y1="9.96376" x2="15.3602" y2="11.7135" gradientUnits="userSpaceOnUse">
<stop offset="0.00132565" stop-color="#3C2200"/>
<stop offset="1" stop-color="#512D00"/>
</linearGradient>
<linearGradient id="paint11_linear_0_9000" x1="7.62806" y1="8.57732" x2="7.61252" y2="7.61471" gradientUnits="userSpaceOnUse">
<stop offset="0.00132565" stop-color="#3C2200"/>
<stop offset="1" stop-color="#7A4400"/>
</linearGradient>
<linearGradient id="paint12_linear_0_9000" x1="7.43308" y1="3.84247" x2="14.0045" y2="8.24248" gradientUnits="userSpaceOnUse">
<stop stop-color="#80DAFE"/>
<stop offset="1" stop-color="#7000A3"/>
</linearGradient>
<linearGradient id="paint13_linear_0_9000" x1="14.0924" y1="1.87492" x2="17.0353" y2="6.44634" gradientUnits="userSpaceOnUse">
<stop stop-color="#80DAFE"/>
<stop offset="1" stop-color="#7000A3"/>
</linearGradient>
<linearGradient id="paint14_linear_0_9000" x1="18.8137" y1="2.12208" x2="21.128" y2="8.12207" gradientUnits="userSpaceOnUse">
<stop stop-color="#80DAFE"/>
<stop offset="1" stop-color="#7000A3"/>
</linearGradient>
</defs>
</svg>
