<svg width="60" height="60" viewBox="0 0 60 60" fill="none" xmlns="http://www.w3.org/2000/svg">
<path d="M50.6897 36.2069V8.2758H46.5518V2.06885H13.4483V8.2758H9.31042V36.2069H50.6897Z" fill="#F8D832"/>
<path d="M16.7587 48.6206L30 57.9309L43.2414 48.6206H16.7587Z" fill="#F8D832"/>
<path d="M46.5517 36.207V12.4139H42.4138V6.20703H17.5863V12.414H13.4484V36.207H46.5517Z" fill="#C4A316"/>
<path d="M24.1461 48.6206L30.0002 53.0513L35.8543 48.6206H24.1461Z" fill="#C4A316"/>
<path d="M7.24133 48.6208H52.7586V36.207H7.24133V48.6208Z" fill="#CA3E49"/>
<path d="M7.24137 48.6208V41.3794H0L4.13789 47.5863L0 53.7931H9.31031V48.6206H7.24137V48.6208Z" fill="#9B2432"/>
<path d="M60 41.3794H52.7586V48.6208H50.6897V53.7932H60L55.8621 47.5862L60 41.3794Z" fill="#9B2432"/>
<path d="M21.7241 41.3791H17.5862C17.0141 41.3791 16.5516 40.9167 16.5516 40.3446C16.5516 39.7725 17.0141 39.3101 17.5862 39.3101H21.7241C22.2962 39.3101 22.7586 39.7725 22.7586 40.3446C22.7586 40.9168 22.2962 41.3791 21.7241 41.3791Z" fill="white"/>
<path d="M32.0689 41.3791H25.862C25.2899 41.3791 24.8275 40.9167 24.8275 40.3446C24.8275 39.7725 25.2899 39.3101 25.862 39.3101H32.069C32.6411 39.3101 33.1035 39.7725 33.1035 40.3446C33.1034 40.9168 32.641 41.3791 32.0689 41.3791Z" fill="white"/>
<path d="M26.8965 45.5173H17.5862C17.0141 45.5173 16.5516 45.0549 16.5516 44.4828C16.5516 43.9107 17.0141 43.4482 17.5862 43.4482H26.8965C27.4686 43.4482 27.931 43.9107 27.931 44.4828C27.931 45.0549 27.4686 45.5173 26.8965 45.5173Z" fill="white"/>
<path d="M42.4138 45.5173H40.3448C39.7727 45.5173 39.3103 45.0549 39.3103 44.4828C39.3103 43.9107 39.7727 43.4482 40.3448 43.4482H42.4138C42.9859 43.4482 43.4483 43.9107 43.4483 44.4828C43.4483 45.0549 42.9859 45.5173 42.4138 45.5173Z" fill="white"/>
<path d="M36.207 45.5173H31.0345C30.4624 45.5173 30 45.0549 30 44.4828C30 43.9107 30.4624 43.4482 31.0345 43.4482H36.207C36.7791 43.4482 37.2415 43.9107 37.2415 44.4828C37.2415 45.0549 36.7789 45.5173 36.207 45.5173Z" fill="white"/>
<path d="M42.4137 41.3791H37.2413C36.6692 41.3791 36.2068 40.9167 36.2068 40.3446C36.2068 39.7725 36.6692 39.3101 37.2413 39.3101H42.4137C42.9858 39.3101 43.4483 39.7725 43.4483 40.3446C43.4483 40.9168 42.9858 41.3791 42.4137 41.3791Z" fill="white"/>
<path d="M36.207 21.724C36.207 18.2957 33.4284 15.5171 30 15.5171C26.5717 15.5171 23.7931 18.2957 23.7931 21.724C23.7931 25.1524 26.5717 27.931 30 27.931C33.4284 27.931 36.207 25.1524 36.207 21.724Z" fill="#F8D832"/>
<path d="M30 27.9312C25.4297 27.9312 21.7241 31.6366 21.7241 36.2071H38.2758C38.2759 31.6366 34.5703 27.9312 30 27.9312Z" fill="#F8D832"/>
</svg>
