<svg width="60" height="60" viewBox="0 0 60 60" fill="none" xmlns="http://www.w3.org/2000/svg">
<g clip-path="url(#clip0_0_16462)">
<path d="M19.9169 45.9482C22.7122 51.3393 26.1066 55.4325 30.0001 58.9266C33.9934 55.4324 37.3878 51.3393 40.0834 45.9482H19.9169Z" fill="#FFDD09"/>
<path d="M24.7089 45.9482C26.3062 49.2428 28.1032 51.3393 30.0001 53.4358C31.9968 51.4391 33.6939 49.2428 35.2913 45.9482H24.7089Z" fill="#FFDD09"/>
<path d="M46.1732 33.9685C47.9702 28.3778 48.9685 22.4877 48.9685 16.4977V13.0035L30.0001 1.02344L11.0317 13.0035V16.4977C11.0317 22.4877 12.03 28.3779 13.827 33.9685H46.1732Z" fill="#FCC309"/>
<path d="M41.9801 33.9685C43.9768 28.3778 44.9751 22.4877 44.9751 16.4977V15.1998L30.0001 5.81543L15.025 15.2997V16.5975C15.025 22.5875 16.0233 28.4777 18.02 34.0683H41.9801V33.9685Z" fill="#FFDD09"/>
<path d="M35.9901 19.9915C35.9901 16.697 33.2945 14.0015 30 14.0015C26.7055 14.0015 24.01 16.697 24.01 19.9915C24.01 23.286 26.7055 25.9815 30 25.9815C33.2945 25.9815 35.9901 23.286 35.9901 19.9915Z" fill="#54C9FD"/>
<path d="M22.0133 33.9682C22.0133 29.5755 25.6073 25.9814 30 25.9814C34.3928 25.9814 37.9868 29.5755 37.9868 33.9682H22.0133Z" fill="#54C9FD"/>
<path d="M9.03503 44.9501H50.9652V34.9668H9.03503V44.9501Z" fill="#1CD759"/>
<path d="M49.9668 46.9467V38.96H55.9568L52.9618 44.95L55.9568 50.94H49.9668V46.9467Z" fill="#1CD759"/>
<path d="M55.9568 38.96H58.9518L54.9585 44.95L58.9518 50.94H55.9568L52.9618 44.95L55.9568 38.96Z" fill="#15A143"/>
<path d="M10.0334 42.9534V50.94H4.04333L7.03834 44.95L4.04333 38.96H10.0334V42.9534Z" fill="#1CD759"/>
<path d="M4.04335 50.94H1.04834L5.04165 44.95L1.04834 38.96H4.04335L7.03836 44.95L4.04335 50.94Z" fill="white"/>
<path d="M30.0001 54.4339C29.7006 54.4339 29.5009 54.3341 29.3013 54.1344C27.5043 52.2376 25.5076 50.0412 23.8105 46.4472C23.6108 46.1477 23.7107 45.7484 23.9103 45.4489C24.11 45.1494 24.4095 44.9497 24.709 44.9497H35.3912C35.6908 44.9497 36.09 45.1494 36.19 45.4489C36.3897 45.7484 36.3897 46.1477 36.19 46.4472C34.393 50.0412 32.4962 52.2375 30.6991 54.1344C30.4992 54.3341 30.2996 54.4339 30.0001 54.4339ZM26.3062 46.9464C27.5042 49.0429 28.802 50.6402 30 51.9381C31.1981 50.6402 32.4959 49.0429 33.6939 46.9464H26.3062Z" fill="black"/>
<path d="M30 59.9249C29.8003 59.9249 29.5008 59.8252 29.3012 59.6254C24.9085 55.6321 21.614 51.4391 18.9185 46.3476C18.7188 46.0481 18.8187 45.6488 18.9185 45.3493C19.0183 45.0498 19.4177 44.8501 19.817 44.8501H40.0833C40.3828 44.8501 40.7821 45.0498 40.9818 45.3493C41.1815 45.6488 41.1815 46.0481 40.9818 46.3476C38.3861 51.4391 35.0916 55.6321 30.599 59.6254C30.4992 59.6254 30.4992 59.7252 30.3993 59.7252C30.2995 59.9249 30.1996 59.9249 30 59.9249ZM21.5141 46.9466C23.7104 50.9399 26.5058 54.3343 29.9999 57.5289C33.4941 54.3342 36.1897 50.8401 38.4858 46.9466H21.5141Z" fill="black"/>
<path d="M30 26.9801C26.1065 26.9801 23.0117 23.8852 23.0117 19.9917C23.0117 16.0982 26.1065 13.0034 30 13.0034C33.8935 13.0034 36.9884 16.0982 36.9884 19.9917C36.9884 23.8852 33.8935 26.9801 30 26.9801ZM30 15C27.2047 15 25.0083 17.1963 25.0083 19.9917C25.0083 22.7872 27.2046 24.9835 30 24.9835C32.7955 24.9835 34.9918 22.7872 34.9918 19.9917C34.9918 17.1963 32.7953 15 30 15Z" fill="black"/>
<path d="M51.9635 46.9469H8.03663C7.43763 46.9469 7.03833 46.5476 7.03833 45.9486V33.9685C7.03833 33.3695 7.43763 32.9702 8.03663 32.9702H51.9635C52.5625 32.9702 52.9618 33.3695 52.9618 33.9685V45.9486C52.9618 46.5476 52.5625 46.9469 51.9635 46.9469ZM9.03504 44.9501H50.9652V34.9668H9.03504V44.9501Z" fill="black"/>
<path d="M10.0333 51.9386H1.04828C0.648987 51.9386 0.349486 51.7388 0.14978 51.4393C-0.0499266 51.1398 -0.0499266 50.7405 0.14978 50.441L3.84359 44.9502L0.249574 39.5592C0.0498681 39.2597 0.0498681 38.8604 0.249574 38.5609C0.349369 38.1616 0.64887 37.9619 1.04828 37.9619H8.0366C8.6356 37.9619 9.0349 38.3612 9.0349 38.9602V45.9485H10.0332C10.6322 45.9485 11.0315 46.3478 11.0315 46.9468V50.9401C11.0316 51.5391 10.6323 51.9386 10.0333 51.9386ZM2.94508 49.9418H9.0349V47.9451H8.0366C7.4376 47.9451 7.0383 47.5458 7.0383 46.9468V39.9585H2.94508L5.94009 44.3512C6.1398 44.6507 6.1398 45.1499 5.94009 45.4494L2.94508 49.9418Z" fill="black"/>
<path d="M58.9518 51.9386H49.9668C49.3678 51.9386 48.9685 51.5393 48.9685 50.9403V46.9468C48.9685 46.3478 49.3678 45.9485 49.9668 45.9485H50.9651V38.9602C50.9651 38.3612 51.3644 37.9619 51.9634 37.9619H58.9517C59.351 37.9619 59.6505 38.1616 59.8502 38.4611C60.0499 38.7606 60.0499 39.1599 59.8502 39.4594L56.1565 44.9501L59.7505 50.3411C59.9502 50.6406 59.9502 51.0399 59.7505 51.3394C59.5508 51.639 59.3512 51.9386 58.9518 51.9386ZM50.9652 49.9418H57.055L54.06 45.5491C53.8603 45.2496 53.8603 44.7504 54.06 44.4509L57.055 40.0582H52.9618V47.0465C52.9618 47.6455 52.5625 48.0448 51.9635 48.0448H50.9652V49.9418Z" fill="black"/>
<path d="M22.0133 38.96H18.02C17.421 38.96 17.0217 38.5607 17.0217 37.9617C17.0217 37.3627 17.421 36.9634 18.02 36.9634H22.0133C22.6123 36.9634 23.0116 37.3627 23.0116 37.9617C23.0116 38.5607 22.6123 38.96 22.0133 38.96Z" fill="black"/>
<path d="M31.9967 38.96H26.0067C25.4077 38.96 25.0084 38.5607 25.0084 37.9617C25.0084 37.3627 25.4077 36.9634 26.0067 36.9634H31.9967C32.5957 36.9634 32.995 37.3627 32.995 37.9617C32.9952 38.5607 32.5957 38.96 31.9967 38.96Z" fill="black"/>
<path d="M27.0051 42.9531H18.02C17.421 42.9531 17.0217 42.5538 17.0217 41.9548C17.0217 41.3558 17.421 40.9565 18.02 40.9565H27.0051C27.6041 40.9565 28.0034 41.3558 28.0034 41.9548C28.0034 42.5537 27.6041 42.9531 27.0051 42.9531Z" fill="black"/>
<path d="M41.9801 42.9531H39.9834C39.3844 42.9531 38.9851 42.5538 38.9851 41.9548C38.9851 41.3558 39.3844 40.9565 39.9834 40.9565H41.9801C42.5791 40.9565 42.9784 41.3558 42.9784 41.9548C42.9784 42.5537 42.5791 42.9531 41.9801 42.9531Z" fill="black"/>
<path d="M35.9901 42.9531H30.9984C30.3994 42.9531 30.0001 42.5538 30.0001 41.9548C30.0001 41.3558 30.3994 40.9565 30.9984 40.9565H35.9901C36.5891 40.9565 36.9884 41.3558 36.9884 41.9548C36.9884 42.5537 36.5891 42.9531 35.9901 42.9531Z" fill="black"/>
<path d="M41.9801 38.96H36.9884C36.3894 38.96 35.9901 38.5607 35.9901 37.9617C35.9901 37.3627 36.3894 36.9634 36.9884 36.9634H41.9801C42.5791 36.9634 42.9784 37.3627 42.9784 37.9617C42.9784 38.5607 42.5791 38.96 41.9801 38.96Z" fill="black"/>
<path d="M46.1732 34.9666H13.827C13.4278 34.9666 13.0283 34.6671 12.8288 34.2678C10.932 28.5773 10.0334 22.5873 10.0334 16.4975V13.0032C10.0334 12.7037 10.2332 12.3044 10.5327 12.2045L29.5009 0.224487C29.8004 0.0247805 30.1997 0.0247805 30.5991 0.224487L49.5675 12.2045C49.867 12.4042 50.0667 12.7037 50.0667 13.0032V16.4975C50.0667 22.4875 49.1682 28.4775 47.2714 34.2678C47.0717 34.7669 46.6722 34.9666 46.1732 34.9666ZM14.5258 32.9699H45.4742C47.1715 27.5789 47.9701 22.0881 47.9701 16.4973V13.5023L30 2.22108L12.0299 13.6021V16.5971C12.03 22.0881 12.8286 27.6788 14.5258 32.9699Z" fill="black"/>
<path d="M41.9801 34.9664H18.02C17.6207 34.9664 17.2213 34.6669 17.1215 34.2676C15.025 28.5771 14.0267 22.5871 14.0267 16.4972V15.1993C14.0267 14.8998 14.2264 14.5005 14.5259 14.4006L29.501 4.91638C29.8005 4.71667 30.1998 4.71667 30.5992 4.91638L45.5743 14.4006C45.8738 14.6003 46.0735 14.8998 46.0735 15.1993V16.4971C46.0735 22.4871 45.0752 28.4772 42.9787 34.2675C42.7787 34.7667 42.3794 34.9664 41.9801 34.9664ZM18.7188 32.9697H41.2812C43.0782 27.5787 43.9767 22.0879 43.9767 16.4971V15.6984L30.0001 6.91309L16.0233 15.6985V16.4972C16.0233 22.0879 16.9218 27.6786 18.7188 32.9697Z" fill="black"/>
<path d="M37.9867 34.9667H22.0133C21.4143 34.9667 21.015 34.5674 21.015 33.9684C21.015 28.9767 25.0083 24.9834 30 24.9834C34.9918 24.9834 38.9851 28.9767 38.9851 33.9684C38.9851 34.5674 38.5857 34.9667 37.9867 34.9667ZM23.1115 32.97H36.9884C36.4892 29.5757 33.5941 26.98 30.0998 26.98C26.6056 26.98 23.6106 29.5757 23.1115 32.97Z" fill="black"/>
</g>
<defs>
<clipPath id="clip0_0_16462">
<rect width="60" height="60" fill="white"/>
</clipPath>
</defs>
</svg>
