<svg width="32" height="32" viewBox="0 0 32 32" fill="none" xmlns="http://www.w3.org/2000/svg">
<path d="M16 13.0002C15.2636 13.0002 14.6667 12.4032 14.6667 11.6668C14.6667 10.9304 15.2636 10.3335 16 10.3335C16.7364 10.3335 17.3333 10.9304 17.3333 11.6668C17.3333 12.4032 16.7364 13.0002 16 13.0002ZM12.0322 20.7661H19.6133V28.1574L15.8228 24.3669L12.0322 28.1574V20.7661Z" fill="#D8D8D8"/>
<mask id="mask0_0_17545" style="mask-type:luminance" maskUnits="userSpaceOnUse" x="12" y="10" width="8" height="19">
<path d="M16 13.0002C15.2636 13.0002 14.6667 12.4032 14.6667 11.6668C14.6667 10.9304 15.2636 10.3335 16 10.3335C16.7364 10.3335 17.3333 10.9304 17.3333 11.6668C17.3333 12.4032 16.7364 13.0002 16 13.0002ZM12.0322 20.7661H19.6133V28.1574L15.8228 24.3669L12.0322 28.1574V20.7661Z" fill="white"/>
</mask>
<g mask="url(#mask0_0_17545)">
<path d="M32 -0.333252H0V31.6667H32V-0.333252Z" fill="#FFA0A0"/>
</g>
<path d="M13.3333 21.9975V25.6941L15.0399 23.9239C15.5643 23.38 16.4355 23.38 16.9599 23.9239L18.6666 25.6941V21.9975C17.8143 22.2169 16.9207 22.3336 15.9999 22.3336C15.0791 22.3336 14.1856 22.2169 13.3333 21.9975ZM10.6697 20.9084C7.4797 19.0645 5.33325 15.6164 5.33325 11.6669C5.33325 5.77587 10.1089 1.00024 15.9999 1.00024C21.891 1.00024 26.6666 5.77587 26.6666 11.6669C26.6666 15.6164 24.5201 19.0645 21.3302 20.9084C21.3322 20.9386 21.3333 20.9692 21.3333 20.9999V28.9979C21.3333 30.1973 19.8725 30.7866 19.0399 29.923L15.9999 26.7698L12.9599 29.923C12.1273 30.7866 10.6666 30.1973 10.6666 28.9979V20.9999C10.6666 20.9692 10.6676 20.9386 10.6697 20.9084ZM15.9999 19.6669C20.4182 19.6669 23.9999 16.0852 23.9999 11.6669C23.9999 7.24863 20.4182 3.66691 15.9999 3.66691C11.5816 3.66691 7.99992 7.24863 7.99992 11.6669C7.99992 16.0852 11.5816 19.6669 15.9999 19.6669ZM15.9999 17.0002C13.0544 17.0002 10.6666 14.6124 10.6666 11.6669C10.6666 8.72139 13.0544 6.33358 15.9999 6.33358C18.9454 6.33358 21.3333 8.72139 21.3333 11.6669C21.3333 14.6124 18.9454 17.0002 15.9999 17.0002ZM15.9999 14.3336C17.4727 14.3336 18.6666 13.1397 18.6666 11.6669C18.6666 10.1942 17.4727 9.00024 15.9999 9.00024C14.5272 9.00024 13.3333 10.1942 13.3333 11.6669C13.3333 13.1397 14.5272 14.3336 15.9999 14.3336Z" fill="black"/>
<mask id="mask1_0_17545" style="mask-type:luminance" maskUnits="userSpaceOnUse" x="5" y="1" width="22" height="30">
<path d="M13.3333 21.9975V25.6941L15.0399 23.9239C15.5643 23.38 16.4355 23.38 16.9599 23.9239L18.6666 25.6941V21.9975C17.8143 22.2169 16.9207 22.3336 15.9999 22.3336C15.0791 22.3336 14.1856 22.2169 13.3333 21.9975ZM10.6697 20.9084C7.4797 19.0645 5.33325 15.6164 5.33325 11.6669C5.33325 5.77587 10.1089 1.00024 15.9999 1.00024C21.891 1.00024 26.6666 5.77587 26.6666 11.6669C26.6666 15.6164 24.5201 19.0645 21.3302 20.9084C21.3322 20.9386 21.3333 20.9692 21.3333 20.9999V28.9979C21.3333 30.1973 19.8725 30.7866 19.0399 29.923L15.9999 26.7698L12.9599 29.923C12.1273 30.7866 10.6666 30.1973 10.6666 28.9979V20.9999C10.6666 20.9692 10.6676 20.9386 10.6697 20.9084ZM15.9999 19.6669C20.4182 19.6669 23.9999 16.0852 23.9999 11.6669C23.9999 7.24863 20.4182 3.66691 15.9999 3.66691C11.5816 3.66691 7.99992 7.24863 7.99992 11.6669C7.99992 16.0852 11.5816 19.6669 15.9999 19.6669ZM15.9999 17.0002C13.0544 17.0002 10.6666 14.6124 10.6666 11.6669C10.6666 8.72139 13.0544 6.33358 15.9999 6.33358C18.9454 6.33358 21.3333 8.72139 21.3333 11.6669C21.3333 14.6124 18.9454 17.0002 15.9999 17.0002ZM15.9999 14.3336C17.4727 14.3336 18.6666 13.1397 18.6666 11.6669C18.6666 10.1942 17.4727 9.00024 15.9999 9.00024C14.5272 9.00024 13.3333 10.1942 13.3333 11.6669C13.3333 13.1397 14.5272 14.3336 15.9999 14.3336Z" fill="white"/>
</mask>
<g mask="url(#mask1_0_17545)">
<path d="M32 -0.333008H0V31.667H32V-0.333008Z" fill="#7600FF"/>
</g>
</svg>
