<svg width="24" height="24" viewBox="0 0 24 24" fill="none" xmlns="http://www.w3.org/2000/svg">
<g clip-path="url(#clip0_0_10591)">
<path d="M12 24C18.6274 24 24 18.6274 24 12C24 5.37258 18.6274 0 12 0C5.37258 0 0 5.37258 0 12C0 18.6274 5.37258 24 12 24Z" fill="#E6F3FF"/>
<path d="M23.8689 13.7737L19.1061 9.01088L17.9223 11.8141L13.2357 7.12744L9.3563 12.2063L4.85645 16.4331L12.4154 23.9921C18.2524 23.7932 23.0314 19.4262 23.8689 13.7737Z" fill="#CFDBE6"/>
<path d="M15.8252 12.4401C13.868 12.4401 12.1493 13.4567 11.165 14.9899C12.1494 16.523 13.868 17.5397 15.8252 17.5397C17.7823 17.5397 19.5011 16.5231 20.4853 14.9899C19.501 13.4568 17.7823 12.4401 15.8252 12.4401Z" fill="#A03D50"/>
<path d="M8.17575 12.4401C10.1329 12.4401 11.8516 13.4567 12.8359 14.9899C11.8515 16.523 10.1329 17.5397 8.17575 17.5397C6.21858 17.5397 4.49986 16.5231 3.51562 14.9899C4.49995 13.4568 6.21858 12.4401 8.17575 12.4401Z" fill="#C75163"/>
<path d="M13.6127 10.6178C12.1214 12.1088 11.5865 14.1927 12.0047 16.1109C13.9229 16.5294 16.0071 15.9949 17.4985 14.504C18.9898 13.0131 19.5246 10.929 19.1065 9.0109C17.1882 8.5923 15.104 9.12677 13.6127 10.6178Z" fill="#FF6472"/>
<path d="M10.3873 10.6178C11.8786 12.1088 12.4135 14.1927 11.9953 16.1109C10.0771 16.5294 7.99289 15.9949 6.50156 14.504C5.01023 13.0131 4.47539 10.929 4.89356 9.0109C6.81178 8.5923 8.89598 9.12677 10.3873 10.6178Z" fill="#FF80AA"/>
<path d="M9.25293 11.0932C9.25293 13.2021 10.3484 15.054 12.0004 16.1146C13.6524 15.054 14.7479 13.2021 14.7479 11.0932C14.7479 8.98421 13.6524 7.13237 12.0004 6.07178C10.3484 7.13237 9.25293 8.98426 9.25293 11.0932Z" fill="#FF6472"/>
<path d="M14.7475 11.0932C14.7475 8.98431 13.652 7.13242 12 6.07178V16.1145C13.652 15.0541 14.7475 13.2022 14.7475 11.0932Z" fill="#C75163"/>
</g>
<defs>
<clipPath id="clip0_0_10591">
<rect width="24" height="24" fill="white"/>
</clipPath>
</defs>
</svg>
