<svg width="48" height="32" viewBox="0 0 48 32" fill="none" xmlns="http://www.w3.org/2000/svg">
<rect x="0.5" y="0.5" width="47" height="31" rx="3.5" fill="#010000"/>
<rect x="0.5" y="0.5" width="47" height="31" rx="3.5" stroke="#F9F7F6"/>
<path d="M44 16.6667C44 21.085 38.6274 24.6667 32 24.6667C25.3726 24.6667 20 21.085 20 16.6667C20 12.2484 25.3726 8.66669 32 8.66669C38.6274 8.66669 44 12.2484 44 16.6667Z" fill="#F9A000"/>
<g opacity="0.9">
<path d="M29 16.6667C29 21.085 23.6274 24.6667 17 24.6667C10.3726 24.6667 5 21.085 5 16.6667C5 12.2484 10.3726 8.66669 17 8.66669C23.6274 8.66669 29 12.2484 29 16.6667Z" fill="#ED0006"/>
</g>
</svg>
