<svg width="288" height="337" viewBox="0 0 288 337" fill="none" xmlns="http://www.w3.org/2000/svg">
<g clip-path="url(#clip0_24_1068)">
<path d="M278.331 124.409H9.05C6.65064 124.406 4.35034 123.452 2.65374 121.755C0.957135 120.058 0.00277049 117.758 0 115.359V9.80829C0.00277049 7.40894 0.957135 5.10864 2.65374 3.41204C4.35034 1.71544 6.65064 0.761071 9.05 0.758301H278.331C280.731 0.761071 283.031 1.71544 284.728 3.41204C286.424 5.10864 287.379 7.40894 287.381 9.80829V115.359C287.379 117.758 286.424 120.058 284.728 121.755C283.031 123.452 280.731 124.406 278.331 124.409Z" fill="#F2F2F2"/>
<path d="M215.529 118.637H51.7945C39.5932 118.623 27.8956 113.77 19.268 105.142C10.6404 96.5145 5.78733 84.8169 5.77356 72.6156V52.5559C5.78731 40.3546 10.6403 28.6569 19.2679 20.0293C27.8955 11.4016 39.5932 6.54851 51.7945 6.53467H235.589C247.79 6.54851 259.488 11.4016 268.115 20.0293C276.743 28.6569 281.596 40.3546 281.61 52.5559C281.59 70.0755 274.621 86.8718 262.233 99.2601C249.845 111.648 233.049 118.617 215.529 118.637Z" fill="white"/>
<path d="M173.292 36.7505H65.0613C64.4423 36.7505 63.8486 36.5046 63.4109 36.0669C62.9732 35.6292 62.7273 35.0355 62.7273 34.4165C62.7273 33.7975 62.9732 33.2038 63.4109 32.7661C63.8486 32.3284 64.4423 32.0825 65.0613 32.0825H173.292C173.911 32.0825 174.505 32.3284 174.942 32.7661C175.38 33.2038 175.626 33.7975 175.626 34.4165C175.626 35.0355 175.38 35.6292 174.942 36.0669C174.505 36.5046 173.911 36.7505 173.292 36.7505Z" fill="#E6E6E6"/>
<path d="M228.08 61.6529H65.0613C64.4423 61.6529 63.8486 61.407 63.4109 60.9692C62.9732 60.5315 62.7273 59.9379 62.7273 59.3189C62.7273 58.6998 62.9732 58.1062 63.4109 57.6685C63.8486 57.2308 64.4423 56.9849 65.0613 56.9849H228.08C228.699 56.9849 229.293 57.2308 229.73 57.6685C230.168 58.1062 230.414 58.6998 230.414 59.3189C230.414 59.9379 230.168 60.5315 229.73 60.9692C229.293 61.407 228.699 61.6529 228.08 61.6529Z" fill="#E6E6E6"/>
<path d="M228.08 86.5552H65.0613C64.4423 86.5552 63.8486 86.3093 63.4109 85.8716C62.9732 85.4339 62.7273 84.8402 62.7273 84.2212C62.7273 83.6022 62.9732 83.0085 63.4109 82.5708C63.8486 82.1331 64.4423 81.8872 65.0613 81.8872H228.08C228.699 81.8872 229.293 82.1331 229.73 82.5708C230.168 83.0085 230.414 83.6022 230.414 84.2212C230.414 84.8402 230.168 85.4339 229.73 85.8716C229.293 86.3093 228.699 86.5552 228.08 86.5552Z" fill="#E6E6E6"/>
<path d="M228.08 86.5552H65.0613C64.4423 86.5552 63.8486 86.3093 63.4109 85.8716C62.9732 85.4339 62.7273 84.8402 62.7273 84.2212C62.7273 83.6022 62.9732 83.0085 63.4109 82.5708C63.8486 82.1331 64.4423 81.8872 65.0613 81.8872H228.08C228.699 81.8872 229.293 82.1331 229.73 82.5708C230.168 83.0085 230.414 83.6022 230.414 84.2212C230.414 84.8402 230.168 85.4339 229.73 85.8716C229.293 86.3093 228.699 86.5552 228.08 86.5552Z" fill="#E6E6E6"/>
<path d="M161.871 64.5114C161.897 65.2145 162.076 65.9033 162.397 66.5293C162.718 67.1554 163.173 67.7034 163.728 68.1349C164.284 68.5664 164.927 68.8708 165.614 69.0266C166.3 69.1825 167.011 69.186 167.699 69.037L176.6 83.6391L180.388 75.6003L171.355 62.9664C171.028 61.8279 170.295 60.8489 169.294 60.2149C168.294 59.5809 167.096 59.3359 165.927 59.5263C164.758 59.7168 163.699 60.3294 162.951 61.2482C162.204 62.167 161.819 63.3281 161.871 64.5114Z" fill="#FFB6B6"/>
<path d="M228.667 106.36L197.992 89.7212L188.317 80.6438C188.317 80.6438 184.111 79.5176 185.659 78.15C187.207 76.7824 182.795 75.4634 182.795 75.4634L177.601 70.5903L170.221 75.8125L172.357 79.1236C172.357 79.1236 172.21 84.605 175.213 83.5504C178.216 82.4959 177.465 87.0419 177.465 87.0419L195.388 114.825L228.667 106.36Z" fill="#3F3D56"/>
<path d="M138.12 90.6829C154.667 90.6829 168.081 77.2686 168.081 60.7213C168.081 44.174 154.667 30.7598 138.12 30.7598C121.572 30.7598 108.158 44.174 108.158 60.7213C108.158 77.2686 121.572 90.6829 138.12 90.6829Z" fill="#A1BB5A"/>
<path d="M228.762 324.593H222.532L219.567 300.564H228.762V324.593Z" fill="#FFB6B6"/>
<path d="M232.05 335.387H227.583L226.785 331.169L224.743 335.387H212.894C212.326 335.387 211.772 335.206 211.315 334.869C210.857 334.533 210.519 334.059 210.35 333.516C210.181 332.974 210.19 332.392 210.375 331.855C210.561 331.318 210.913 330.854 211.38 330.532L220.842 323.997V319.732L230.795 320.326L232.05 335.387Z" fill="#2F2E41"/>
<path d="M178.936 324.593H172.706L169.741 300.564H178.936V324.593Z" fill="#FFB6B6"/>
<path d="M182.224 335.387H177.756L176.959 331.169L174.917 335.387H163.067C162.499 335.387 161.946 335.206 161.489 334.869C161.031 334.533 160.693 334.059 160.524 333.516C160.355 332.974 160.364 332.392 160.549 331.855C160.734 331.318 161.086 330.854 161.554 330.532L171.016 323.997V319.732L180.969 320.326L182.224 335.387Z" fill="#2F2E41"/>
<path d="M222.152 142.863H190.708V178.66H222.152V142.863Z" fill="#FFB6B6"/>
<path d="M191.434 160.519L186.112 166.808L176.921 186.158L153.762 241.261L148.864 252.915L152.819 273.516C152.819 273.516 153.46 288.029 153.46 290.405C153.46 295.242 157.506 297.923 157.506 297.923L160.474 313.383L189.257 312.174C189.257 312.174 188.253 295.132 182.224 290.834C176.196 286.535 173.425 264.132 173.425 264.132L170.149 254.193L202.076 216.346L202.282 229.575L202.382 235.979C202.382 235.979 197.706 277.626 203.157 285.709C208.607 293.791 203.268 292.84 203.268 292.84L203.527 309.513L237.631 309.755L230.108 261.754C230.108 261.754 226.287 258.737 228.331 255.705C230.375 252.673 226.35 248.959 226.35 248.959L228.155 211.486C228.155 211.486 226.157 205.013 228.508 204.172C230.859 203.331 228.816 197.764 228.816 197.764L229.166 190.511L222.152 168.017L191.434 160.519Z" fill="#2F2E41"/>
<path d="M222.635 142.863L226.022 132.704L228.44 129.318L229.408 119.643C229.408 93.5209 223.581 97.8708 223.581 97.8708L220.217 88.6834L204.737 88.1997L194.82 97.6328L186.596 100.535L183.376 117.268L189.257 135.123L190.708 144.798C187.94 149.909 188.174 147.491 190.466 151.329L217.798 158.827C227.473 162.213 227.473 153.505 225.533 151.329C223.593 149.152 222.635 142.863 222.635 142.863Z" fill="#3F3D56"/>
<path d="M210.477 84.9523C218.402 84.9523 224.827 78.5274 224.827 70.6019C224.827 62.6764 218.402 56.2515 210.477 56.2515C202.551 56.2515 196.126 62.6764 196.126 70.6019C196.126 78.5274 202.551 84.9523 210.477 84.9523Z" fill="#FFB6B6"/>
<path d="M229.635 89.7566C229.77 89.9848 229.852 90.2405 229.875 90.5047C229.897 90.7689 229.86 91.0348 229.766 91.2827C229.671 91.5305 229.522 91.7538 229.33 91.936C229.137 92.1182 228.906 92.2546 228.653 92.335C226.728 92.9736 225.542 94.836 224.159 96.3259C222.78 97.811 220.56 99.0446 218.799 98.0335C217.043 97.0274 216.922 94.4587 215.451 93.0655C214.02 91.711 211.64 91.8754 209.956 92.9058L209.906 92.9368C209.615 93.1262 209.275 93.2264 208.929 93.2248C208.582 93.2232 208.243 93.12 207.954 92.9279C207.665 92.7358 207.439 92.4633 207.303 92.144C207.168 91.8247 207.129 91.4727 207.191 91.1315C207.781 87.9945 208.37 84.8579 208.96 81.7216C207.411 85.4515 205.163 88.8505 202.337 91.7352C201.559 92.6336 200.572 93.3278 199.464 93.7572C198.457 94.0765 197.48 93.0364 196.503 93.2251C198.931 91.1014 207.097 77.4888 205.636 68.3895C203.919 68.583 202.202 68.7765 200.484 68.97C200.298 68.1573 199.901 67.4081 199.333 66.798C199.402 67.589 199.302 68.3856 199.038 69.1345C198.322 69.2168 197.601 69.2942 196.885 69.3764C195.889 69.4877 194.805 69.5844 193.949 69.062C192.522 68.1912 192.478 66.1305 192.885 64.505C194.075 59.7788 197.683 55.8266 202.1 53.7562C206.517 51.6906 207.823 56.291 212.476 54.8205C221.668 51.918 228.711 56.8813 231.193 66.0918C233.278 73.8172 231.763 82.0167 229.635 89.7566Z" fill="#2F2E41"/>
<path d="M269.364 335.699H251.792L251.716 335.562C251.492 335.155 251.275 334.723 251.072 334.279C249.262 330.404 248.497 325.972 247.822 322.062L247.314 319.115C247.252 318.758 247.299 318.391 247.447 318.06C247.595 317.73 247.839 317.451 248.147 317.26C248.454 317.069 248.812 316.974 249.174 316.987C249.536 317 249.886 317.121 250.178 317.335C252.849 319.278 255.52 321.219 258.193 323.158C259.205 323.895 260.36 324.747 261.467 325.668C261.574 325.149 261.686 324.629 261.797 324.116C261.874 323.762 262.055 323.439 262.317 323.188C262.579 322.937 262.909 322.77 263.267 322.709C263.624 322.647 263.991 322.693 264.322 322.841C264.653 322.99 264.932 323.233 265.123 323.541L267.179 326.844C268.678 329.256 270.002 331.633 269.732 334.197C269.734 334.228 269.731 334.259 269.725 334.29C269.671 334.711 269.571 335.125 269.427 335.524L269.364 335.699Z" fill="#F0F0F0"/>
<path d="M287.001 336.079L120.023 336.242C119.856 336.241 119.697 336.174 119.579 336.056C119.461 335.938 119.396 335.778 119.396 335.612C119.396 335.445 119.461 335.285 119.579 335.167C119.697 335.049 119.856 334.982 120.023 334.981L287.001 334.818C287.167 334.819 287.327 334.886 287.444 335.004C287.562 335.122 287.628 335.282 287.628 335.449C287.628 335.615 287.562 335.775 287.444 335.893C287.327 336.012 287.167 336.078 287.001 336.079Z" fill="#CACACA"/>
<path d="M135.396 101.048L117.029 85.5374C116.401 85.0061 116.01 84.2474 115.941 83.4278C115.872 82.6082 116.13 81.7947 116.66 81.1657L120.041 77.1628C120.572 76.535 121.331 76.1436 122.151 76.0745C122.97 76.0054 123.784 76.2642 124.413 76.7942L142.779 92.3049C143.407 92.8363 143.799 93.595 143.868 94.4145C143.937 95.2341 143.678 96.0476 143.148 96.6766L139.768 100.68C139.236 101.307 138.477 101.699 137.658 101.768C136.838 101.837 136.025 101.578 135.396 101.048Z" fill="#3F3D56"/>
<path d="M117.993 81.4883C117.707 81.8273 117.568 82.2657 117.605 82.7073C117.642 83.149 117.853 83.5578 118.191 83.8442L136.558 99.3549C136.897 99.6405 137.335 99.7799 137.777 99.7427C138.219 99.7055 138.628 99.4946 138.914 99.1563L142.294 95.1534C142.58 94.8144 142.719 94.376 142.682 93.9343C142.645 93.4927 142.434 93.0838 142.096 92.7975L123.729 77.2868C123.39 77.0012 122.952 76.8618 122.51 76.899C122.068 76.9362 121.659 77.1471 121.373 77.4854L117.993 81.4883Z" fill="white"/>
<path d="M128.775 87.5175C128.711 87.6067 128.628 87.6798 128.531 87.7311C128.434 87.7823 128.326 87.8103 128.217 87.8128L125.331 87.8791C125.238 87.8812 125.146 87.8651 125.06 87.8316C124.973 87.798 124.894 87.7478 124.827 87.6838C124.76 87.6197 124.706 87.5431 124.669 87.4583C124.631 87.3734 124.611 87.282 124.609 87.1893C124.607 87.0966 124.623 87.0044 124.656 86.9179C124.69 86.8315 124.74 86.7524 124.804 86.6854C124.868 86.6183 124.945 86.5645 125.03 86.5271C125.115 86.4897 125.206 86.4693 125.299 86.4671L127.187 86.4237L125.327 81.5178C125.261 81.3428 125.268 81.1488 125.345 80.9784C125.422 80.808 125.563 80.6751 125.738 80.6088C125.913 80.5426 126.107 80.5483 126.277 80.6249C126.448 80.7015 126.581 80.8426 126.648 81.0173L128.861 86.8566C128.901 86.9622 128.915 87.0759 128.902 87.1881C128.889 87.3003 128.849 87.4077 128.786 87.5014L128.775 87.5175Z" fill="#A1BB5A"/>
<path d="M129.145 88.7508C129.841 88.8531 130.507 89.1067 131.094 89.4938C131.682 89.8809 132.177 90.3921 132.545 90.9914C132.914 91.5907 133.147 92.2635 133.227 92.9624C133.307 93.6613 133.233 94.3694 133.01 95.0366L146.558 105.473L138.155 108.364L126.578 98.0108C125.482 97.562 124.589 96.7268 124.067 95.6633C123.546 94.5998 123.432 93.382 123.749 92.2406C124.065 91.0992 124.789 90.1135 125.784 89.4703C126.779 88.8271 127.975 88.5711 129.145 88.7508Z" fill="#FFB6B6"/>
<path d="M199.677 93.9106L164.991 115.237C164.991 115.237 151.006 110.063 153.739 107.667C156.472 105.272 147.771 103.652 147.771 103.652L138.159 97.1857L132.582 103.668C132.582 103.668 133.598 114.197 135.327 112.374C137.056 110.551 139.641 115.531 139.641 115.531C139.641 115.531 140.405 121.092 145.327 119.692C150.25 118.293 163.458 132.962 163.458 132.962L206.147 117.04L199.677 93.9106Z" fill="#3F3D56"/>
<path d="M137.066 72.7408C136.664 72.7408 136.267 72.6472 135.908 72.4673C135.548 72.2874 135.235 72.0263 134.994 71.7045L128.641 63.234C128.437 62.9619 128.289 62.6523 128.204 62.3228C128.12 61.9932 128.101 61.6503 128.149 61.3136C128.197 60.9769 128.311 60.6529 128.485 60.3603C128.658 60.0676 128.887 59.8119 129.159 59.6078C129.709 59.1957 130.4 59.0187 131.08 59.1159C131.417 59.164 131.741 59.2779 132.033 59.4513C132.326 59.6246 132.582 59.8538 132.786 60.126L136.942 65.6671L147.616 49.6554C147.998 49.0838 148.59 48.687 149.264 48.5523C149.937 48.4175 150.637 48.5559 151.209 48.937C151.78 49.3181 152.177 49.9106 152.312 50.5843C152.446 51.2579 152.308 51.9575 151.927 52.5291L139.221 71.5873C138.992 71.932 138.683 72.2165 138.32 72.4171C137.958 72.6177 137.552 72.7284 137.138 72.74C137.114 72.7404 137.09 72.7408 137.066 72.7408Z" fill="white"/>
</g>
<defs>
<clipPath id="clip0_24_1068">
<rect width="287.628" height="335.484" fill="white" transform="translate(0 0.758301)"/>
</clipPath>
</defs>
</svg>
