<svg width="48" height="32" viewBox="0 0 48 32" fill="none" xmlns="http://www.w3.org/2000/svg">
<rect x="0.5" y="0.5" width="47" height="31" rx="3.5" fill="white"/>
<rect x="0.5" y="0.5" width="47" height="31" rx="3.5" stroke="#F9F7F6"/>
<path fill-rule="evenodd" clip-rule="evenodd" d="M20.3329 24.5977L20.64 22.6655L19.9559 22.6497H16.6892L18.9594 8.39158C18.9665 8.3484 18.9894 8.30832 19.0228 8.27981C19.0563 8.2513 19.0991 8.23566 19.1438 8.23566H24.652C26.4807 8.23566 27.7427 8.61251 28.4014 9.35643C28.7103 9.70541 28.9071 10.0702 29.0023 10.4715C29.1021 10.8927 29.1038 11.3958 29.0064 12.0095L28.9993 12.0542V12.4475L29.3082 12.6208C29.5683 12.7575 29.7751 12.9139 29.9336 13.093C30.1978 13.3915 30.3687 13.7708 30.4409 14.2203C30.5156 14.6826 30.4909 15.233 30.3687 15.856C30.2277 16.5726 29.9999 17.1968 29.6922 17.7074C29.4092 18.1779 29.0487 18.5683 28.6205 18.8707C28.2118 19.1581 27.7262 19.3762 27.1772 19.5159C26.6451 19.653 26.0384 19.7223 25.3731 19.7223H24.9444C24.638 19.7223 24.3403 19.8316 24.1065 20.0276C23.8721 20.2277 23.7172 20.5011 23.6697 20.8L23.6373 20.974L23.0946 24.3797L23.0701 24.5047C23.0635 24.5443 23.0524 24.564 23.0359 24.5773C23.0213 24.5895 23.0002 24.5977 22.9796 24.5977H20.3329Z" fill="#28356A"/>
<path fill-rule="evenodd" clip-rule="evenodd" d="M29.6011 12.0995C29.5848 12.2037 29.5659 12.31 29.5448 12.4194C28.8185 16.1136 26.3332 17.3898 23.1593 17.3898H21.5432C21.1551 17.3898 20.8279 17.6689 20.7675 18.0481L19.7058 24.7192C19.6665 24.9683 19.8602 25.1926 20.1139 25.1926H22.9802C23.3195 25.1926 23.6079 24.9484 23.6613 24.6168L23.6895 24.4727L24.2291 21.0804L24.2638 20.8943C24.3166 20.5616 24.6056 20.3172 24.945 20.3172H25.3736C28.1507 20.3172 30.3247 19.2005 30.9601 15.9687C31.2254 14.6187 31.088 13.4914 30.3857 12.6986C30.1732 12.4596 29.9095 12.2612 29.6011 12.0995Z" fill="#298FC2"/>
<path fill-rule="evenodd" clip-rule="evenodd" d="M28.8406 11.7995C28.7296 11.7674 28.6151 11.7384 28.4977 11.7122C28.3796 11.6866 28.2587 11.6639 28.1342 11.6441C27.6985 11.5743 27.221 11.5413 26.7096 11.5413H22.3923C22.2859 11.5413 22.1849 11.565 22.0946 11.6081C21.8954 11.7029 21.7475 11.8896 21.7117 12.1182L20.7932 17.8802L20.7668 18.0482C20.8272 17.6689 21.1544 17.3898 21.5426 17.3898H23.1586C26.3326 17.3898 28.8178 16.113 29.5442 12.4194C29.5659 12.3101 29.5841 12.2037 29.6004 12.0996C29.4167 12.003 29.2176 11.9204 29.0033 11.85C28.9504 11.8326 28.8957 11.8158 28.8406 11.7995Z" fill="#22284F"/>
<path fill-rule="evenodd" clip-rule="evenodd" d="M21.712 12.1182C21.7479 11.8896 21.8957 11.7029 22.0949 11.6087C22.1859 11.5656 22.2862 11.5418 22.3927 11.5418H26.7099C27.2213 11.5418 27.6988 11.575 28.1345 11.6447C28.2591 11.6645 28.3799 11.6873 28.498 11.7128C28.6155 11.7389 28.73 11.7681 28.841 11.8C28.8961 11.8163 28.9507 11.8332 29.0042 11.85C29.2185 11.9204 29.4177 12.0037 29.6014 12.0996C29.8176 10.7345 29.5996 9.80498 28.8545 8.9633C28.0329 8.03658 26.5502 7.64001 24.6529 7.64001H19.1445C18.757 7.64001 18.4264 7.91911 18.3665 8.29905L16.0723 22.7038C16.027 22.9888 16.2489 23.2459 16.5391 23.2459H19.9397L21.712 12.1182Z" fill="#28356A"/>
</svg>
