<svg width="131" height="131" viewBox="0 0 131 131" fill="none" xmlns="http://www.w3.org/2000/svg">
    <path opacity="0.3" fill-rule="evenodd" clip-rule="evenodd"
        d="M40.528 16.3361C47.3659 13.4245 54.8906 11.8134 62.7917 11.8134C94.2029 11.8134 119.667 37.2772 119.667 68.6884C119.667 100.1 94.2029 125.563 62.7917 125.563C31.3805 125.563 5.91666 100.1 5.91666 68.6884C5.91666 63.3537 6.65113 58.1905 8.02446 53.2945L18.4552 56.2203C17.3281 60.2387 16.75 64.4196 16.75 68.6884C16.75 94.1165 37.3635 114.73 62.7917 114.73C88.2198 114.73 108.833 94.1165 108.833 68.6884C108.833 43.2603 88.2198 22.6467 62.7917 22.6467C57.6391 22.6467 52.6211 23.4913 47.8889 25.1084L54.3389 32.7951C54.7144 33.2426 54.9351 33.7996 54.9681 34.3828C55.0528 35.8762 53.9108 37.1554 52.4174 37.24L26.0546 38.7339C25.7921 38.7488 25.5288 38.7254 25.273 38.6644C23.8181 38.3173 22.9199 36.8565 23.267 35.4016L29.3797 9.77459C29.5146 9.20908 29.8279 8.70198 30.2732 8.32827C31.4191 7.36681 33.1274 7.51627 34.0888 8.66209L40.528 16.3361Z"
        fill="#FAB03C" />
    <path fill-rule="evenodd" clip-rule="evenodd"
        d="M79.0417 60.5632C82.0332 60.5632 84.4583 62.9884 84.4583 65.9799V82.2299C84.4583 85.2214 82.0332 87.6466 79.0417 87.6466H51.9583C48.9668 87.6466 46.5417 85.2214 46.5417 82.2299V65.9799C46.5417 62.9884 48.9668 60.5632 51.9583 60.5632V57.8549C51.9583 50.376 58.0211 44.3132 65.5 44.3132C72.9788 44.3132 79.0417 50.376 79.0417 57.8549V60.5632ZM65.5 49.7299C61.0127 49.7299 57.375 53.3676 57.375 57.8549V60.5632H73.625V57.8549C73.625 53.3676 69.9873 49.7299 65.5 49.7299Z"
        fill="#FAB03C" />
</svg>
