<svg width="70" height="67" viewBox="0 0 70 67" fill="none" xmlns="http://www.w3.org/2000/svg">
<path d="M10.5 37L10 36H9.5L2.5 47.5L1.5 49L1 50.5L1.5 52L3 52.5H5.5L7 52L10 51L13.5 50.5L14.5 53.5L15 57L15.5 59L16 60.5L17.5 61H19.5L27 48H25.5L24.5 47.5L22.5 46.5L21 46L19.5 45L18 44L16 42.5L14.5 41.5L13.5 40.5L12.5 39.5L11.5 38.5L10.5 37Z" fill="#EDECEC" stroke="#EDECEC" stroke-linejoin="round"/>
<path d="M40.3555 47.027L39.2379 46.9972L39.0024 47.4383L45.8516 59.0287L46.7041 60.6173L47.7919 61.7647L49.3507 62.0299L50.4981 60.942L51.6752 58.7365L51.9405 57.1778L52.4709 54.0603L53.6778 50.7372L56.7953 51.2676L60.1184 52.4745L62.1183 52.9752L63.677 53.2404L64.8244 52.1525L65.7662 50.3881L57.8291 37.6503L57.1228 38.9736L56.2108 39.6203L54.3869 40.9139L53.2395 42.0017L51.651 42.8541L50.0624 43.7066L47.7974 44.7647L46.2089 45.6171L44.8558 46.0284L43.5027 46.4398L42.1497 46.8511L40.3555 47.027Z" fill="#EDECEC" stroke="#EDECEC" stroke-linejoin="round"/>
<rect x="12" width="45" height="45" rx="22.5" fill="#EDECEC"/>
<path d="M29.5314 20.7914V19.8203C29.5314 17.15 31.3656 14.021 33.7392 14.021H34.3597C36.7333 14.021 38.5675 17.15 38.5675 19.8203V20.7914H41.103V18.4177C41.103 16.6375 40.4287 14.8033 39.1879 13.3737C37.8932 11.8362 36.1938 11 34.4136 11H33.6853C31.9051 11 30.2057 11.8362 28.911 13.3737C27.6702 14.8033 26.9958 16.6375 26.9958 18.4177V20.7914H29.5314Z" fill="#BDBDBD"/>
<g style="mix-blend-mode:multiply" opacity="0.6">
<path d="M39.1879 13.3737C39.08 13.2479 38.9721 13.122 38.8642 12.9961C38.9182 13.14 38.9541 13.2928 38.9721 13.4546C38.9991 13.8593 38.8103 14.3178 38.4866 14.5606C38.1899 14.8033 37.8123 14.8033 37.4886 14.6685C37.2458 14.5606 37.03 14.3987 36.8142 14.2639C36.5625 14.102 36.2928 13.9671 36.005 13.8593C35.4656 13.6435 34.8721 13.5356 34.2787 13.5356C33.2267 13.5086 32.1478 13.8053 31.2847 14.4257C30.5024 14.9921 29.909 15.8013 29.4774 16.6915C29.1807 17.3119 29.0728 18.0132 28.6143 18.5527C28.4254 18.7685 28.1557 18.9303 27.859 18.8763C27.5353 18.7954 27.2926 18.5796 27.1577 18.2829C27.0858 18.0851 27.0408 17.8873 27.0228 17.6895C27.0048 17.9413 26.9958 18.184 26.9958 18.4178V20.7915H29.5314V19.8204C29.5314 17.15 31.3656 14.0211 33.7392 14.0211H34.3597C36.7333 14.0211 38.5675 17.15 38.5675 19.8204V20.7915H41.103V18.4178C41.103 16.6375 40.4287 14.8033 39.1879 13.3737Z" fill="#BDBDBD"/>
</g>
<g style="mix-blend-mode:multiply" opacity="0.6">
<path d="M38.5674 19.9551V20.7913H41.1029V19.9551H38.5674Z" fill="#BDBDBD"/>
</g>
<g style="mix-blend-mode:multiply" opacity="0.6">
<path d="M26.9958 19.9551V20.7913H29.5314V19.9551H26.9958Z" fill="#BDBDBD"/>
</g>
<path d="M43.0723 21.0877C43.0184 20.9528 42.9105 20.8179 42.8026 20.7101C42.6138 20.5752 42.4249 20.5212 42.2092 20.4673H25.8362C25.6204 20.5212 25.4046 20.5752 25.2428 20.737C25.1079 20.8719 25.027 21.0068 25 21.1956C25 21.2136 25 21.2405 25 21.2765V24.7831C25 38.2429 43.1263 38.5666 43.1263 24.7831V21.2765C43.1083 21.2046 43.0903 21.1416 43.0723 21.0877Z" fill="#BDBDBD"/>
<path d="M42.6947 21.3037C42.6407 21.1689 42.5329 21.034 42.425 20.9531C42.2631 20.8182 42.0743 20.7643 41.8585 20.7373H26.1329C25.9171 20.7643 25.7283 20.8182 25.5665 20.9531C25.4406 21.079 25.3687 21.2228 25.3507 21.3847C25.3507 21.4027 25.3417 21.4296 25.3237 21.4656V24.7294C25.3237 37.1642 42.7487 37.4609 42.7487 24.7294V21.4656C42.7307 21.4116 42.7127 21.3577 42.6947 21.3037Z" fill="#BDBDBD"/>
<path d="M41.9396 21.5197C41.9126 21.4118 41.8047 21.3039 41.7238 21.223C41.5619 21.1151 41.3731 21.0612 41.1843 21.0342H26.6995C26.5107 21.0612 26.3219 21.1151 26.187 21.223C26.0611 21.3309 25.9892 21.4568 25.9712 21.6006C25.9712 21.6186 25.9712 21.6456 25.9712 21.6816V24.4329C25.9712 35.0335 41.9935 35.3032 41.9935 24.4329V21.6546C41.9935 21.6006 41.9755 21.5557 41.9396 21.5197Z" fill="#AAAAAA"/>
<path d="M36.194 25.0259C36.194 23.92 35.25 23.0029 34.0631 23.0029C32.8763 23.0029 31.9322 23.92 31.9322 25.0259C31.9322 25.8891 32.4717 26.6174 33.2809 26.9141L31.7434 31.5266H36.194L34.7914 26.9141C35.6006 26.6444 36.194 25.9161 36.194 25.0259Z" fill="#8A8A8B"/>
<path d="M32.4989 25.0264C32.4989 24.0014 33.3081 23.1653 34.3601 23.0304C34.2522 23.0124 34.1533 23.0034 34.0634 23.0034C32.8765 23.0034 31.9325 23.9205 31.9325 25.0264C31.9325 25.8896 32.472 26.6179 33.2812 26.9146L31.7437 31.5271H32.3101L33.8476 26.9146C33.0654 26.6179 32.4989 25.8896 32.4989 25.0264Z" fill="#AAAAAA"/>
<path d="M36.194 25.0263C36.194 24.0013 35.3848 23.1651 34.3598 23.0303C33.3079 23.1651 32.4986 24.0013 32.4986 25.0263C32.4986 25.8895 33.0651 26.6178 33.8473 26.9145L32.3098 31.527H36.194L34.7914 26.9145C35.6006 26.6447 36.194 25.9165 36.194 25.0263Z" fill="#BDBDBD"/>
<path d="M27.2925 17.4733C27.2925 17.4733 28.3714 11.0266 35.0609 11.2694C35.0609 11.2694 29.1267 11.7279 27.2925 17.4733Z" fill="#AAAAAA"/>
<g style="mix-blend-mode:screen">
<path d="M26.5106 21.7893C26.5106 21.7893 26.3218 22.3558 26.5646 22.8143C26.8073 23.2999 29.5047 22.5985 29.4507 21.9512C29.3698 21.3038 26.9152 20.8183 26.5106 21.7893Z" fill="#AAAAAA"/>
</g>
<g style="mix-blend-mode:screen">
<path d="M26.4566 24.0824C26.4566 24.0824 26.3487 24.568 26.4836 24.9995C26.5915 25.4041 27.9402 24.7838 27.9132 24.2173C27.8862 23.6509 26.6455 23.2193 26.4566 24.0824Z" fill="#AAAAAA"/>
</g>
</svg>
