<svg width="330" height="218" viewBox="0 0 330 218" fill="none" xmlns="http://www.w3.org/2000/svg">
<g clip-path="url(#clip0_24_911)">
<path d="M118.649 125.462C129.891 105.686 151.335 90.5019 174.035 91.9646C157.291 110.173 147.527 133.718 146.471 158.432C146.098 167.965 146.676 178.607 140.346 185.745C136.408 190.186 130.388 192.337 124.469 192.788C118.55 193.24 112.633 192.17 106.793 191.105L105.376 191.54C104.837 168.799 107.407 145.237 118.649 125.462Z" fill="#F0F0F0"/>
<path d="M174.068 92.4399C157.282 100.521 142.969 114.017 134.182 130.477C132.282 134.035 130.665 137.81 129.96 141.802C129.254 145.795 129.747 149.596 131.111 153.389C132.358 156.857 134.035 160.259 134.417 163.969C134.82 167.88 133.381 171.536 130.791 174.438C127.622 177.989 123.366 180.189 119.129 182.196C114.425 184.425 109.504 186.665 106.172 190.824C105.769 191.328 105.01 190.672 105.413 190.169C111.21 182.933 121.133 181.573 128.013 175.744C131.224 173.024 133.634 169.32 133.482 164.98C133.349 161.184 131.623 157.674 130.33 154.175C128.973 150.5 128.296 146.805 128.782 142.886C129.28 138.878 130.754 135.032 132.554 131.441C136.614 123.341 142.171 115.905 148.536 109.477C155.851 102.088 164.377 96.0051 173.744 91.4912C174.324 91.212 174.645 92.1626 174.068 92.4399Z" fill="white"/>
<path d="M136.756 124.976C134.182 123.094 132.362 120.359 131.619 117.259C130.876 114.159 131.259 110.896 132.7 108.052C132.994 107.478 133.9 107.907 133.606 108.482C132.259 111.127 131.903 114.167 132.6 117.053C133.298 119.938 135.004 122.479 137.411 124.217C137.933 124.595 137.275 125.352 136.756 124.976Z" fill="white"/>
<path d="M130.247 151.715C136.695 150.773 142.552 147.435 146.648 142.367C147.054 141.864 147.812 142.52 147.407 143.022C143.134 148.288 137.033 151.749 130.32 152.715C129.681 152.807 129.611 151.806 130.247 151.715Z" fill="white"/>
<path d="M156.347 103.322C157.191 104.258 158.254 104.969 159.441 105.392C160.627 105.816 161.901 105.937 163.146 105.747C163.785 105.647 163.854 106.647 163.22 106.746C161.843 106.951 160.437 106.815 159.124 106.35C157.812 105.885 156.633 105.106 155.692 104.081C155.595 103.992 155.535 103.869 155.526 103.738C155.516 103.607 155.557 103.477 155.64 103.374C155.727 103.274 155.85 103.213 155.983 103.203C156.115 103.193 156.246 103.236 156.347 103.322Z" fill="white"/>
<path d="M219.201 154.348C218.804 154.422 218.407 154.496 218.007 154.577C212.677 155.594 207.438 157.042 202.342 158.907C201.946 159.045 201.546 159.191 201.155 159.34C188.926 163.964 177.662 170.819 167.936 179.555C164.069 183.035 160.472 186.804 157.177 190.83C152.626 196.39 148.134 202.78 142.188 206.406C141.572 206.791 140.932 207.137 140.273 207.444L106.017 193.234C105.955 193.163 105.89 193.099 105.828 193.028L104.434 192.523C104.589 192.303 104.755 192.079 104.911 191.86C105 191.732 105.098 191.607 105.187 191.48C105.25 191.396 105.312 191.312 105.363 191.232C105.384 191.204 105.405 191.176 105.422 191.156C105.474 191.076 105.53 191.008 105.578 190.936C106.502 189.68 107.437 188.428 108.382 187.18C108.385 187.172 108.385 187.172 108.396 187.168C115.62 177.679 123.701 168.71 132.886 161.252C133.162 161.028 133.441 160.796 133.734 160.578C137.892 157.239 142.317 154.246 146.963 151.628C149.512 150.203 152.132 148.908 154.811 147.748C161.741 144.763 169.098 142.887 176.611 142.188C191.588 140.797 206.843 144.212 218.33 153.621C218.624 153.862 218.91 154.1 219.201 154.348Z" fill="#F0F0F0"/>
<path d="M218.944 154.751C200.675 151.097 181.121 153.255 164.196 161.107C160.537 162.805 156.972 164.845 154.006 167.607C151.038 170.371 149.143 173.703 147.948 177.552C146.856 181.072 146.147 184.798 144.219 187.99C142.186 191.356 138.835 193.409 135.02 194.167C130.352 195.094 125.629 194.288 121.038 193.34C115.941 192.287 110.663 191.113 105.498 192.427C104.873 192.587 104.662 191.606 105.287 191.447C114.272 189.16 123.013 194.048 132.017 193.536C136.218 193.298 140.372 191.792 142.864 188.235C145.043 185.124 145.778 181.282 146.852 177.71C147.981 173.958 149.665 170.6 152.413 167.765C155.224 164.864 158.716 162.68 162.315 160.897C170.434 156.874 179.347 154.282 188.3 152.982C198.589 151.487 209.059 151.763 219.256 153.798C219.887 153.925 219.571 154.877 218.944 154.751Z" fill="white"/>
<path d="M169.563 158.265C168.641 155.213 168.834 151.933 170.107 149.01C171.381 146.088 173.651 143.713 176.514 142.31C177.094 142.028 177.559 142.916 176.978 143.199C174.31 144.5 172.195 146.713 171.015 149.436C169.835 152.16 169.667 155.217 170.543 158.053C170.732 158.67 169.751 158.878 169.563 158.265Z" fill="white"/>
<path d="M148.267 175.695C153.983 178.825 160.669 179.686 166.991 178.105C167.617 177.948 167.828 178.929 167.203 179.085C160.62 180.718 153.665 179.808 147.724 176.538C147.158 176.226 147.704 175.385 148.267 175.695Z" fill="white"/>
<path d="M198.242 152.771C198.353 154.026 198.773 155.234 199.466 156.286C200.159 157.338 201.102 158.202 202.212 158.8C202.781 159.105 202.234 159.945 201.668 159.642C200.446 158.976 199.405 158.021 198.637 156.86C197.869 155.699 197.397 154.368 197.262 152.982C197.238 152.853 197.265 152.719 197.336 152.608C197.408 152.498 197.519 152.418 197.646 152.386C197.776 152.359 197.912 152.384 198.023 152.456C198.135 152.528 198.213 152.641 198.242 152.771Z" fill="white"/>
<path d="M153.945 177.79C149.147 154.594 143.15 146.86 143.15 146.86L140.859 145.083L138.104 142.943L138.117 142.668L137.464 142.446L137.311 142.327L137.059 142.133L137.019 142.177L136.933 142.265L124.466 138.028L108.649 132.655L101.325 123.135C100.133 121.585 98.5969 120.332 96.8387 119.474C95.0805 118.617 93.1476 118.178 91.1914 118.192L67.8007 118.365C64.638 118.389 61.5984 119.594 59.2796 121.745L43.9052 136.006L19.9489 147.447L19.9085 147.407L19.6569 147.587L15.9555 149.357L16.1082 150.152L13.8172 151.805C13.8172 151.805 7.82031 159.001 3.02277 180.585C1.80232 186.078 1.20158 197.859 0.98474 212.376C0.973849 213.111 1.10906 213.84 1.38252 214.522C1.65598 215.203 2.06222 215.824 2.57763 216.347C3.09305 216.87 3.70734 217.286 4.3848 217.57C5.06226 217.854 5.78937 218 6.52385 218H134.479L150.449 218C151.183 218 151.91 217.854 152.587 217.57C153.264 217.287 153.878 216.872 154.393 216.349C154.909 215.826 155.315 215.207 155.589 214.526C155.863 213.845 155.999 213.116 155.989 212.382C155.777 196.585 155.176 183.746 153.945 177.79Z" fill="#3F3D56"/>
<path d="M170.362 20.23C165.384 20.23 160.609 22.2076 157.089 25.7277C153.569 29.2478 151.592 34.0221 151.592 39.0003C151.592 43.9785 153.569 48.7528 157.089 52.273C160.609 55.7931 165.384 57.7707 170.362 57.7707H310.246C315.224 57.7707 319.998 55.7931 323.518 52.273C327.038 48.7528 329.016 43.9785 329.016 39.0003C329.016 34.0221 327.038 29.2478 323.518 25.7277C319.998 22.2076 315.224 20.23 310.246 20.23H170.362Z" fill="#E5E5E5"/>
<path d="M170.362 24.0283C166.391 24.0283 162.583 25.6057 159.775 28.4134C156.968 31.2211 155.39 35.0292 155.39 38.9999C155.39 42.9706 156.968 46.7787 159.775 49.5864C162.583 52.3941 166.391 53.9715 170.362 53.9715H310.246C314.216 53.9715 318.024 52.3941 320.832 49.5864C323.64 46.7787 325.217 42.9706 325.217 38.9999C325.217 35.0292 323.64 31.2211 320.832 28.4134C318.024 25.6057 314.216 24.0283 310.246 24.0283H170.362Z" fill="white"/>
<path d="M83.1692 109.405C100.094 109.405 113.813 95.6852 113.813 78.7609C113.813 61.8366 100.094 48.1167 83.1692 48.1167C66.2449 48.1167 52.525 61.8366 52.525 78.7609C52.525 95.6852 66.2449 109.405 83.1692 109.405Z" fill="#9E616A"/>
<path d="M75.3299 107.904C75.199 107.616 75.0684 107.327 74.9382 107.037C74.9884 107.038 75.0381 107.045 75.0882 107.047L75.3299 107.904Z" fill="#2F2E41"/>
<path d="M51.6731 49.5096C53.223 48.2732 55.0344 47.1356 57.016 47.1996C58.9976 47.2634 61.007 49.0531 60.5965 50.9928C64.2363 44.5483 70.0297 39.5917 76.9598 36.9931C83.89 34.3944 91.514 34.3198 98.4937 36.7824C103.419 38.52 108.249 41.9962 109.38 47.0948C109.67 48.4036 109.733 49.8387 110.55 50.9015C111.58 52.2415 113.552 52.5446 115.175 52.0732C115.191 52.0685 115.207 52.0637 115.224 52.0589C115.498 51.9652 115.794 51.956 116.073 52.0325C116.353 52.1089 116.603 52.2674 116.791 52.4876C116.98 52.7077 117.098 52.9793 117.13 53.2673C117.163 53.5552 117.108 53.8463 116.973 54.1028L115.579 56.7017C117.336 57.0933 119.161 57.0545 120.9 56.5886C121.189 56.5128 121.494 56.5283 121.773 56.6328C122.053 56.7374 122.293 56.9259 122.462 57.1725C122.63 57.4191 122.718 57.7117 122.713 58.0102C122.709 58.3088 122.612 58.5985 122.436 58.8398C117.841 65.1485 110.164 69.2224 102.33 69.1745C96.7623 69.1405 91.1371 67.2216 85.7183 68.502C83.6219 68.9973 81.6631 69.9557 79.9855 71.3068C78.3078 72.6579 76.954 74.3675 76.0232 76.3101C75.0925 78.2527 74.6085 80.379 74.6067 82.5331C74.6049 84.6872 75.0854 86.8143 76.0129 88.7584C74.3482 86.9376 71.1302 87.3687 69.4273 89.154C67.7246 90.9393 67.2837 93.6038 67.4553 96.065C67.7177 99.8293 69.1925 103.376 70.7474 106.829C57.7117 106.418 45.382 97.2738 41.2319 84.9058C37.0643 72.4861 41.4321 57.6792 51.6731 49.5096Z" fill="#2F2E41"/>
<path opacity="0.2" d="M31.1459 170.787L39.7409 217.551L44.8981 218L31.1459 170.787Z" fill="black"/>
<path opacity="0.2" d="M125.822 167.261L117.227 217.518L112.069 218L125.822 167.261Z" fill="black"/>
<path d="M59.0037 33.7717C57.3557 34.4598 55.6362 33.7057 54.915 31.9786C54.1828 30.2252 54.8667 28.4452 56.541 27.746C58.2156 27.0468 59.9046 27.8028 60.6485 29.5845C61.3814 31.3395 60.705 33.0613 59.0037 33.7717ZM55.8469 24.2946L54.5366 24.8417C54.2092 24.9768 53.8431 24.9841 53.5107 24.8622C53.1782 24.7402 52.9036 24.4979 52.7413 24.1833L52.6765 24.0565C51.2666 21.5138 51.1051 18.4235 52.1992 14.8763C53.2127 11.6943 53.6337 9.45639 52.7871 7.42897C51.8083 5.08489 49.7182 4.35061 47.0528 5.4143C46.0191 5.84596 45.6901 5.83908 44.8766 6.6461C44.6996 6.82378 44.4887 6.964 44.2564 7.05841C44.0241 7.15282 43.7751 7.19947 43.5244 7.19559C43.282 7.19274 43.0426 7.1411 42.8206 7.04376C42.5986 6.94642 42.3985 6.80536 42.2322 6.62901C41.9118 6.28915 41.7322 5.84036 41.7299 5.37328C41.7275 4.90619 41.9025 4.45561 42.2195 4.11253C43.5869 2.68115 45.2361 1.54875 47.0631 0.786778C52.7898 -1.6045 55.6727 1.92588 56.9919 5.08524C58.2823 8.17545 57.5564 11.0426 56.3902 14.756C55.4128 17.8415 55.4697 20.1278 56.58 22.4012C56.6601 22.573 56.7047 22.7593 56.7111 22.9488C56.7174 23.1384 56.6854 23.3272 56.6169 23.5041C56.5485 23.6809 56.445 23.8421 56.3126 23.978C56.1803 24.1138 56.0219 24.2215 55.8469 24.2946Z" fill="#A1BB5A"/>
<path d="M201.26 47.9526H173.429C173.34 47.9532 173.253 47.9363 173.171 47.9029C173.089 47.8694 173.014 47.8202 172.952 47.7578C172.889 47.6955 172.839 47.6214 172.805 47.5398C172.771 47.4582 172.754 47.3706 172.754 47.2822C172.754 47.1938 172.771 47.1062 172.805 47.0246C172.839 46.943 172.889 46.8689 172.952 46.8066C173.014 46.7442 173.089 46.695 173.171 46.6615C173.253 46.6281 173.34 46.6112 173.429 46.6118H201.26C201.437 46.613 201.607 46.6842 201.731 46.8098C201.856 46.9354 201.926 47.1052 201.926 47.2822C201.926 47.4592 201.856 47.629 201.731 47.7546C201.607 47.8802 201.437 47.9514 201.26 47.9526Z" fill="#A1BB5A"/>
<path d="M236.567 48.1757H208.735C208.646 48.1763 208.559 48.1594 208.477 48.126C208.395 48.0926 208.321 48.0433 208.258 47.981C208.195 47.9187 208.145 47.8446 208.111 47.7629C208.077 47.6813 208.06 47.5938 208.06 47.5054C208.06 47.4169 208.077 47.3294 208.111 47.2477C208.145 47.1661 208.195 47.092 208.258 47.0297C208.321 46.9674 208.395 46.9181 208.477 46.8847C208.559 46.8513 208.646 46.8344 208.735 46.835H236.567C236.655 46.8344 236.743 46.8513 236.824 46.8847C236.906 46.9181 236.981 46.9674 237.044 47.0297C237.106 47.092 237.156 47.1661 237.19 47.2477C237.224 47.3294 237.241 47.4169 237.241 47.5054C237.241 47.5938 237.224 47.6813 237.19 47.7629C237.156 47.8446 237.106 47.9187 237.044 47.981C236.981 48.0433 236.906 48.0926 236.824 48.126C236.743 48.1594 236.655 48.1763 236.567 48.1757Z" fill="#A1BB5A"/>
<path d="M271.873 48.3993H244.041C243.864 48.3981 243.695 48.327 243.57 48.2014C243.445 48.0758 243.375 47.906 243.375 47.729C243.375 47.552 243.445 47.3821 243.57 47.2566C243.695 47.131 243.864 47.0598 244.041 47.0586H271.873C271.961 47.058 272.049 47.0749 272.131 47.1083C272.213 47.1417 272.287 47.191 272.35 47.2533C272.412 47.3156 272.462 47.3897 272.496 47.4714C272.53 47.553 272.548 47.6406 272.548 47.729C272.548 47.8174 272.53 47.9049 272.496 47.9866C272.462 48.0682 272.412 48.1423 272.35 48.2046C272.287 48.2669 272.213 48.3162 272.131 48.3496C272.049 48.3831 271.961 48.3999 271.873 48.3993Z" fill="#A1BB5A"/>
<path d="M307.179 48.6225H279.347C279.17 48.6213 279.001 48.5501 278.876 48.4245C278.751 48.2989 278.681 48.1291 278.681 47.9521C278.681 47.7751 278.751 47.6053 278.876 47.4797C279.001 47.3541 279.17 47.2829 279.347 47.2817H307.179C307.356 47.2829 307.525 47.3541 307.65 47.4797C307.775 47.6053 307.845 47.7751 307.845 47.9521C307.845 48.1291 307.775 48.2989 307.65 48.4245C307.525 48.5501 307.356 48.6213 307.179 48.6225Z" fill="#A1BB5A"/>
<path d="M187.283 41.7825C190.14 41.7825 192.456 39.4666 192.456 36.6097C192.456 33.7529 190.14 31.437 187.283 31.437C184.427 31.437 182.111 33.7529 182.111 36.6097C182.111 39.4666 184.427 41.7825 187.283 41.7825Z" fill="#A1BB5A"/>
<path d="M222.803 41.7825C225.66 41.7825 227.975 39.4666 227.975 36.6097C227.975 33.7529 225.66 31.437 222.803 31.437C219.946 31.437 217.63 33.7529 217.63 36.6097C217.63 39.4666 219.946 41.7825 222.803 41.7825Z" fill="#A1BB5A"/>
<path d="M258.322 41.7825C261.179 41.7825 263.495 39.4666 263.495 36.6097C263.495 33.7529 261.179 31.437 258.322 31.437C255.465 31.437 253.149 33.7529 253.149 36.6097C253.149 39.4666 255.465 41.7825 258.322 41.7825Z" fill="#A1BB5A"/>
<path d="M293.842 41.7825C296.698 41.7825 299.014 39.4666 299.014 36.6097C299.014 33.7529 296.698 31.437 293.842 31.437C290.985 31.437 288.669 33.7529 288.669 36.6097C288.669 39.4666 290.985 41.7825 293.842 41.7825Z" fill="#A1BB5A"/>
</g>
<defs>
<clipPath id="clip0_24_911">
<rect width="328.032" height="218" fill="white" transform="translate(0.984131)"/>
</clipPath>
</defs>
</svg>
