<svg width="48" height="32" viewBox="0 0 48 32" fill="none" xmlns="http://www.w3.org/2000/svg">
<rect x="0.5" y="0.5" width="47" height="31" rx="3.5" fill="#1334CA"/>
<rect x="0.5" y="0.5" width="47" height="31" rx="3.5" stroke="#F9F7F6"/>
<path fill-rule="evenodd" clip-rule="evenodd" d="M14.9573 21.1444H12.0916L9.94265 13.0566C9.84065 12.6846 9.62408 12.3557 9.30551 12.2006C8.51048 11.8111 7.63442 11.5011 6.67871 11.3447V11.0333H11.2952C11.9323 11.0333 12.4102 11.5011 12.4898 12.0443L13.6048 17.8783L16.4691 11.0333H19.2552L14.9573 21.1444ZM20.8481 21.1444H18.1416L20.3702 11.0333H23.0767L20.8481 21.1444ZM26.5781 13.8344C26.6578 13.2898 27.1356 12.9784 27.6931 12.9784C28.5692 12.9003 29.5235 13.0566 30.3199 13.4448L30.7978 11.2679C30.0013 10.9565 29.1253 10.8001 28.3302 10.8001C25.7035 10.8001 23.792 12.2007 23.792 14.1444C23.792 15.6232 25.146 16.3996 26.1017 16.8673C27.1356 17.3337 27.5338 17.6451 27.4542 18.1115C27.4542 18.8111 26.6578 19.1225 25.8627 19.1225C24.907 19.1225 23.9513 18.8893 23.0767 18.4997L22.5988 20.678C23.5545 21.0663 24.5885 21.2226 25.5442 21.2226C28.4895 21.2995 30.3199 19.9003 30.3199 17.8001C30.3199 15.1554 26.5781 15.0004 26.5781 13.8344ZM39.7918 21.1444L37.6428 11.0333H35.3346C34.8567 11.0333 34.3789 11.3447 34.2196 11.8111L30.2403 21.1444H33.0263L33.5824 19.6671H37.0057L37.3242 21.1444H39.7918ZM35.7324 13.7565L36.5274 17.5672H34.2988L35.7324 13.7565Z" fill="white"/>
</svg>
