<svg width="32" height="32" viewBox="0 0 32 32" fill="none" xmlns="http://www.w3.org/2000/svg">
<g clip-path="url(#clip0_0_16107)">
<path d="M0 16C0 7.16485 7.16485 0 16 0C24.8351 0 32 7.16485 32 16C32 24.8351 24.8351 32 16 32C7.16485 32 0 24.8351 0 16Z" fill="#FFEFD6"/>
<path d="M14.2136 20.0886L14.291 20.7529L16 21.1785L17.709 20.7529L17.7864 20.0886H14.2136Z" fill="#302F2F"/>
<path d="M15.0069 20.5272C15.8969 21.0238 16.8965 21.5719 17.1544 21.6171C18.2379 21.8105 19.0311 22.3458 18.9473 22.5651C18.9473 22.5651 16.3934 22.1975 14.5168 21.817C13.788 21.6751 14.3169 20.1403 15.0069 20.5272Z" fill="#F4B382"/>
<path d="M15.007 20.5275C14.317 20.1406 13.7043 19.7923 13.556 19.7407C13.0143 19.5344 11.7374 19.0571 11.4536 20.0051C11.1698 20.9467 12.1372 21.1337 12.8272 21.3981C13.1626 21.5271 13.7881 21.6754 14.5104 21.8238C14.6201 21.3659 14.7813 20.9274 15.007 20.5275Z" fill="#3D3C3C"/>
<path d="M16.9931 20.5272C16.1031 21.0238 15.1035 21.5719 14.8455 21.6171C13.7621 21.8105 12.9689 22.3458 13.0527 22.5651C13.0527 22.5651 15.6065 22.1975 17.4832 21.817C18.2119 21.6751 17.6831 20.1403 16.9931 20.5272Z" fill="#F4B382"/>
<path d="M16.9932 20.5275C17.6832 20.1406 18.2959 19.7923 18.4442 19.7407C18.9859 19.5344 20.2628 19.0571 20.5466 20.0051C20.8303 20.9467 19.863 21.1337 19.1729 21.3981C18.8376 21.5271 18.212 21.6754 17.4897 21.8238C17.3801 21.3659 17.2189 20.9274 16.9932 20.5275Z" fill="#3D3C3C"/>
<path d="M17.709 15.7485C17.8315 15.0069 17.2253 13.659 17.2253 13.659C16.9351 13.6203 16.632 13.6074 16.4063 13.6074H15.5937C15.3615 13.6074 15.0649 13.6203 14.7747 13.659C14.7747 13.659 14.1685 15.0133 14.291 15.7485C14.4071 16.4385 14.6006 17.451 14.2136 20.0887H16H17.7864C17.3994 17.451 17.5929 16.4385 17.709 15.7485Z" fill="#B3233B"/>
<path d="M11.9241 19.4954L10.415 18.5796L10.6085 18.4636L11.879 18.9343L12.9624 17.4253C13.1881 16.832 13.1559 14.2008 13.7427 13.8977C14.1619 13.6784 14.7875 13.6526 14.7875 13.6526C14.7875 13.6526 14.5102 15.123 14.3425 15.1294C14.1748 15.1359 14.2071 15.5937 14.0587 16.2064C13.9942 16.7868 13.9426 17.2382 13.8137 17.6123L11.9241 19.4954Z" fill="#F4B382"/>
<path d="M12.1175 18.9919L11.6145 18.9403L11.8015 18.4953L11.5049 18.3405L11.6016 18.218L12.0466 18.3277L12.1175 18.9919Z" fill="#F4B382"/>
<path d="M11.0664 18.8506L11.3437 18.8829L11.4598 18.5153L11.7049 18.425L11.6726 18.2896L11.3308 18.3024L11.0664 18.8506Z" fill="#F4B382"/>
<path d="M20.0821 19.4954L21.5912 18.5796L21.3977 18.4636L20.1273 18.9343L19.0438 17.4253C18.8181 16.832 18.8504 14.2008 18.2635 13.8977C17.8443 13.6784 17.2188 13.6526 17.2188 13.6526C17.2188 13.6526 17.4961 15.123 17.6637 15.1294C17.8314 15.1359 17.7992 15.5937 17.9475 16.2064C18.012 16.7868 18.0636 17.2382 18.1926 17.6123L20.0821 19.4954Z" fill="#F4B382"/>
<path d="M19.8823 18.9919L20.3853 18.9403L20.2048 18.4953L20.495 18.3405L20.3982 18.218L19.9533 18.3277L19.8823 18.9919Z" fill="#F4B382"/>
<path d="M20.9398 18.8506L20.6561 18.8829L20.5464 18.5153L20.2949 18.425L20.3336 18.2896L20.669 18.3024L20.9398 18.8506Z" fill="#F4B382"/>
<path d="M16.5415 12.8662H15.4517C15.6193 13.3821 15.4646 13.6143 15.4646 13.6143C15.4646 13.6143 15.4968 13.9496 15.9998 13.9496C16.4964 13.9496 16.5286 13.6143 16.5286 13.6143C16.5286 13.6143 16.3739 13.3757 16.5415 12.8662Z" fill="#E2A379"/>
<path d="M17.1156 11.3634C17.1156 10.0672 16.6126 9.77051 16 9.77051C15.3809 9.77051 14.8843 10.0672 14.8843 11.3634C14.8843 11.8019 14.9617 12.1437 15.0777 12.4082C15.3357 12.9886 15.7807 13.1949 16 13.1949C16.2192 13.1949 16.6642 12.9886 16.9222 12.4082C17.0382 12.1437 17.1156 11.8019 17.1156 11.3634Z" fill="#F4B382"/>
<path d="M16.3161 12.6658C16.3161 12.6658 16.1742 12.7367 16.0001 12.7367C15.826 12.7367 15.6841 12.6658 15.6841 12.6658C15.6841 12.6464 15.7873 12.5304 15.8518 12.5239C15.8905 12.5175 16.0001 12.5562 16.0001 12.5562C16.0001 12.5562 16.1033 12.5175 16.1484 12.5239C16.2129 12.5304 16.3161 12.6658 16.3161 12.6658Z" fill="#D6876B"/>
<path d="M16.3161 12.6658C16.3161 12.6658 16.1742 12.7948 16.0001 12.7948C15.826 12.7948 15.6841 12.6658 15.6841 12.6658C15.6841 12.6658 15.7163 12.6272 15.9033 12.6143C15.9356 12.6143 15.9743 12.6401 16.0001 12.6401C16.0259 12.6401 16.0581 12.6143 16.0839 12.6143C16.2774 12.6272 16.3161 12.6658 16.3161 12.6658Z" fill="#CC785E"/>
<path d="M15.9999 10.2342C16.3241 10.2342 16.5868 10.0552 16.5868 9.83441C16.5868 9.61358 16.3241 9.43457 15.9999 9.43457C15.6758 9.43457 15.4131 9.61358 15.4131 9.83441C15.4131 10.0552 15.6758 10.2342 15.9999 10.2342Z" fill="#4C230C"/>
<path d="M17.161 11.4209C17.161 10.1246 16.8063 9.77637 16.0002 9.77637C15.1941 9.77637 14.8394 10.1311 14.8394 11.4209C14.8394 11.4209 16.5612 11.0468 16.5612 10.576C16.5612 11.0468 17.161 11.4209 17.161 11.4209Z" fill="#602F0F"/>
<path d="M14.7747 11.8206C14.8327 12.1752 14.9101 12.1881 15.0198 12.1688L14.9037 11.4014C14.794 11.4207 14.7102 11.4659 14.7747 11.8206Z" fill="#F4B382"/>
<path d="M17.0963 11.4014L16.9802 12.1688C17.0899 12.1881 17.1608 12.1688 17.2253 11.8206C17.2898 11.4659 17.2059 11.4207 17.0963 11.4014Z" fill="#F4B382"/>
<path d="M14.9683 11.4724C14.9619 11.4337 14.9619 11.4014 14.9619 11.3692C14.9619 11.3305 14.9683 11.3047 14.9683 11.3047L14.8394 11.3563C14.8394 11.3756 14.8394 11.395 14.8394 11.4143C14.8394 11.4143 14.8523 11.4079 14.878 11.4014C14.878 11.4014 14.878 11.4014 14.8716 11.4014C14.8909 11.4337 14.9103 11.4788 14.9361 11.5498C14.9361 11.5562 14.9877 11.5949 14.9683 11.4724Z" fill="#602F0F"/>
<path d="M17.032 11.3756C17.032 11.4014 17.032 11.4401 17.0256 11.4724C17.0062 11.5884 17.0578 11.5498 17.0578 11.5498C17.0772 11.4788 17.103 11.4337 17.1223 11.4014C17.1481 11.4079 17.161 11.4143 17.161 11.4143C17.161 11.395 17.161 11.3756 17.161 11.3563L17.032 11.3047C17.0256 11.3111 17.032 11.3369 17.032 11.3756Z" fill="#602F0F"/>
</g>
<defs>
<clipPath id="clip0_0_16107">
<rect width="32" height="32" fill="white"/>
</clipPath>
</defs>
</svg>
