<svg width="22" height="23" viewBox="0 0 22 23" fill="none" xmlns="http://www.w3.org/2000/svg">
<path fill-rule="evenodd" clip-rule="evenodd" d="M20 6V4.509C20 3.675 19.325 3 18.491 3H15.5V4.5H14V3H8V4.5H6.5V3H3.509C2.675 3 2 3.675 2 4.509V19.491C2 20.325 2.675 21 3.509 21H18.491C19.325 21 20 20.325 20 19.491V7.5H2V6H20ZM15.5 1.5H18.491C20.153 1.5 21.5 2.8455 21.5 4.509V19.491C21.5002 19.8862 21.4225 20.2776 21.2714 20.6427C21.1202 21.0079 20.8986 21.3397 20.6191 21.6191C20.3397 21.8986 20.0079 22.1202 19.6427 22.2714C19.2776 22.4225 18.8862 22.5002 18.491 22.5H3.509C3.1138 22.5002 2.72243 22.4225 2.35727 22.2714C1.99212 22.1202 1.66033 21.8986 1.38088 21.6191C1.10143 21.3397 0.879792 21.0079 0.728645 20.6427C0.577499 20.2776 0.499803 19.8862 0.5 19.491V4.509C0.5 2.847 1.8455 1.5 3.509 1.5H6.5V0H8V1.5H14V0H15.5V1.5ZM5 10.5H8V12H5V10.5ZM9.5 10.5H12.5V12H9.5V10.5ZM14 10.5H17V12H14V10.5ZM5 13.5H8V15H5V13.5ZM9.5 13.5H12.5V15H9.5V13.5ZM14 13.5H17V15H14V13.5ZM5 16.5H8V18H5V16.5ZM9.5 16.5H12.5V18H9.5V16.5ZM14 16.5H17V18H14V16.5Z" fill="#A1BB5A"/>
</svg>
