<svg width="60" height="60" viewBox="0 0 60 60" fill="none" xmlns="http://www.w3.org/2000/svg">
<rect width="60" height="60" rx="30" fill="#A1BB5A"/>
<g clip-path="url(#clip0_0_8655)">
<path d="M30 18C23.3719 18 18 22.0266 18 27C18 30.5156 20.6953 33.5531 24.6141 35.0344L21.9984 42L29.5219 35.9813C29.6813 35.9859 29.8359 36 30 36C36.6281 36 42 31.9734 42 27C42 22.0266 36.6281 18 30 18ZM24 29.0016C22.8984 29.0016 21.9984 28.1062 21.9984 27C21.9984 25.8938 22.8938 24.9984 24 24.9984C25.1016 24.9984 26.0016 25.8938 26.0016 27C26.0016 28.1062 25.1016 29.0016 24 29.0016ZM30 29.0016C28.8984 29.0016 27.9984 28.1062 27.9984 27C27.9984 25.8938 28.8938 24.9984 30 24.9984C31.1016 24.9984 32.0016 25.8938 32.0016 27C32.0016 28.1062 31.1016 29.0016 30 29.0016ZM36 29.0016C34.8984 29.0016 33.9984 28.1062 33.9984 27C33.9984 25.8938 34.8937 24.9984 36 24.9984C37.1016 24.9984 38.0016 25.8938 38.0016 27C38.0016 28.1062 37.1016 29.0016 36 29.0016Z" fill="white"/>
</g>
<defs>
<clipPath id="clip0_0_8655">
<rect width="24" height="24" fill="white" transform="translate(18 18)"/>
</clipPath>
</defs>
</svg>
