<svg width="32" height="32" viewBox="0 0 32 32" fill="none" xmlns="http://www.w3.org/2000/svg">
<g clip-path="url(#clip0_0_17517)">
<path d="M16 31.9999C24.8365 31.9999 31.9999 24.8365 31.9999 16C31.9999 7.16343 24.8365 0 16 0C7.16343 0 0 7.16343 0 16C0 24.8365 7.16343 31.9999 16 31.9999Z" fill="white"/>
<path d="M16 21.4725C19.5914 21.4725 22.5028 19.7571 22.5028 17.6411C22.5028 15.5252 19.5914 13.8098 16 13.8098C12.4087 13.8098 9.49731 15.5252 9.49731 17.6411C9.49731 19.7571 12.4087 21.4725 16 21.4725Z" fill="#E56353"/>
<path d="M22.7753 21.8456H16V10.3567C16 10.3567 16.5224 13.6247 18.4372 16.0249C19.5449 17.4134 21.7663 17.4189 22.8931 16.0439C23.5757 15.2111 23.9903 14.1227 24.2336 12.8531" fill="#F6C358"/>
<path d="M9.22476 21.8456H16.0001V10.3567C16.0001 10.3567 15.4777 13.6247 13.5628 16.0249C12.4551 17.4134 10.2337 17.4189 9.10684 16.0439C8.42433 15.2111 8.00979 14.1227 7.76636 12.8531" fill="#FCD462"/>
<path d="M23.2151 21.8452H8.78247V22.7151H23.2151V21.8452Z" fill="#FCD462"/>
<path d="M15.9998 11.449C16.5975 11.449 17.0821 10.9645 17.0821 10.3667C17.0821 9.76898 16.5975 9.28442 15.9998 9.28442C15.402 9.28442 14.9175 9.76898 14.9175 10.3667C14.9175 10.9645 15.402 11.449 15.9998 11.449Z" fill="#E56353"/>
<path d="M24.0852 14.5088C24.683 14.5088 25.1675 14.0243 25.1675 13.4265C25.1675 12.8288 24.683 12.3442 24.0852 12.3442C23.4875 12.3442 23.0029 12.8288 23.0029 13.4265C23.0029 14.0243 23.4875 14.5088 24.0852 14.5088Z" fill="#E56353"/>
<path d="M7.91457 14.5088C8.51231 14.5088 8.99687 14.0243 8.99687 13.4265C8.99687 12.8288 8.51231 12.3442 7.91457 12.3442C7.31684 12.3442 6.83228 12.8288 6.83228 13.4265C6.83228 14.0243 7.31684 14.5088 7.91457 14.5088Z" fill="#E56353"/>
<path d="M15.9999 20.5018C16.8174 20.5018 17.4801 19.5168 17.4801 18.3017C17.4801 17.0866 16.8174 16.1016 15.9999 16.1016C15.1825 16.1016 14.5198 17.0866 14.5198 18.3017C14.5198 19.5168 15.1825 20.5018 15.9999 20.5018Z" fill="#44C4A1"/>
</g>
<defs>
<clipPath id="clip0_0_17517">
<rect width="32" height="32" fill="white"/>
</clipPath>
</defs>
</svg>
