<svg width="21" height="15" viewBox="0 0 21 15" fill="none" xmlns="http://www.w3.org/2000/svg">
<path d="M17.5 2.5C17.5 1.4 16.6 0.5 15.5 0.5H12.5V2.5H15.5V5.15L12.02 9.5H8.5V4.5H4.5C2.29 4.5 0.5 6.29 0.5 8.5V11.5H2.5C2.5 13.16 3.84 14.5 5.5 14.5C7.16 14.5 8.5 13.16 8.5 11.5H12.98L17.5 5.85V2.5ZM5.5 12.5C4.95 12.5 4.5 12.05 4.5 11.5H6.5C6.5 12.05 6.05 12.5 5.5 12.5Z" fill="black"/>
<path d="M3.5 1.5H8.5V3.5H3.5V1.5ZM17.5 8.5C15.84 8.5 14.5 9.84 14.5 11.5C14.5 13.16 15.84 14.5 17.5 14.5C19.16 14.5 20.5 13.16 20.5 11.5C20.5 9.84 19.16 8.5 17.5 8.5ZM17.5 12.5C16.95 12.5 16.5 12.05 16.5 11.5C16.5 10.95 16.95 10.5 17.5 10.5C18.05 10.5 18.5 10.95 18.5 11.5C18.5 12.05 18.05 12.5 17.5 12.5Z" fill="black"/>
</svg>
