<svg width="60" height="60" viewBox="0 0 60 60" fill="none" xmlns="http://www.w3.org/2000/svg">
<rect width="60" height="60" rx="30" fill="#A1BB5A"/>
<path d="M22.6439 22.8H38.5439C40.0439 22.8 40.7999 23.508 40.7999 24.948V35.052C40.7999 36.48 40.0439 37.2 38.5439 37.2H22.6439C21.1439 37.2 20.3879 36.48 20.3879 35.052V24.948C20.3879 23.508 21.1439 22.8 22.6439 22.8ZM30.5879 33.12L38.6759 26.484C38.9639 26.244 39.1919 25.692 38.8319 25.2C38.4839 24.708 37.8479 24.696 37.4279 24.996L30.5879 29.628L23.7599 24.996C23.3399 24.696 22.7039 24.708 22.3559 25.2C21.9959 25.692 22.2239 26.244 22.5119 26.484L30.5879 33.12Z" fill="white"/>
</svg>
