<svg width="20" height="20" viewBox="0 0 20 20" fill="none" xmlns="http://www.w3.org/2000/svg">
<path d="M10.8484 0.75149C10.6234 0.526525 10.3182 0.400146 10 0.400146C9.68181 0.400146 9.37664 0.526525 9.1516 0.75149L0.751603 9.15149C0.533014 9.37781 0.41206 9.68093 0.414795 9.99557C0.417529 10.3102 0.543731 10.6112 0.766221 10.8337C0.988711 11.0562 1.28969 11.1824 1.60432 11.1851C1.91896 11.1878 2.22208 11.0669 2.4484 10.8483L2.8 10.4967V18.3999C2.8 18.7181 2.92643 19.0234 3.15148 19.2484C3.37652 19.4735 3.68174 19.5999 4 19.5999H6.4C6.71826 19.5999 7.02349 19.4735 7.24853 19.2484C7.47357 19.0234 7.6 18.7181 7.6 18.3999V15.9999C7.6 15.6816 7.72643 15.3764 7.95148 15.1514C8.17652 14.9263 8.48174 14.7999 8.8 14.7999H11.2C11.5183 14.7999 11.8235 14.9263 12.0485 15.1514C12.2736 15.3764 12.4 15.6816 12.4 15.9999V18.3999C12.4 18.7181 12.5264 19.0234 12.7515 19.2484C12.9765 19.4735 13.2817 19.5999 13.6 19.5999H16C16.3183 19.5999 16.6235 19.4735 16.8485 19.2484C17.0736 19.0234 17.2 18.7181 17.2 18.3999V10.4967L17.5516 10.8483C17.7779 11.0669 18.081 11.1878 18.3957 11.1851C18.7103 11.1824 19.0113 11.0562 19.2338 10.8337C19.4563 10.6112 19.5825 10.3102 19.5852 9.99557C19.5879 9.68093 19.467 9.37781 19.2484 9.15149L10.8484 0.75149Z" fill="#A1BB5A"/>
</svg>
