<svg width="24" height="24" viewBox="0 0 24 24" fill="none" xmlns="http://www.w3.org/2000/svg">
<path d="M12 16C12.5523 16 13 15.5523 13 15C13 14.4477 12.5523 14 12 14C11.4477 14 11 14.4477 11 15C11 15.5523 11.4477 16 12 16Z" fill="#9E9E9E"/>
<path d="M17 8.00011H16V6.11011C16 5.04924 15.5786 4.03183 14.8284 3.28168C14.0783 2.53153 13.0609 2.11011 12 2.11011C10.9391 2.11011 9.92172 2.53153 9.17157 3.28168C8.42143 4.03183 8 5.04924 8 6.11011V8.00011H7C6.20435 8.00011 5.44129 8.31618 4.87868 8.87879C4.31607 9.4414 4 10.2045 4 11.0001V19.0001C4 19.7958 4.31607 20.5588 4.87868 21.1214C5.44129 21.684 6.20435 22.0001 7 22.0001H17C17.7956 22.0001 18.5587 21.684 19.1213 21.1214C19.6839 20.5588 20 19.7958 20 19.0001V11.0001C20 10.2045 19.6839 9.4414 19.1213 8.87879C18.5587 8.31618 17.7956 8.00011 17 8.00011ZM10 6.11011C9.98655 5.5654 10.1894 5.03756 10.5643 4.6421C10.9391 4.24665 11.4554 4.01581 12 4.00011C12.5446 4.01581 13.0609 4.24665 13.4357 4.6421C13.8106 5.03756 14.0135 5.5654 14 6.11011V8.00011H10V6.11011ZM12 18.0001C11.4067 18.0001 10.8266 17.8242 10.3333 17.4945C9.83994 17.1649 9.45542 16.6963 9.22836 16.1482C9.0013 15.6 8.94189 14.9968 9.05764 14.4148C9.1734 13.8329 9.45912 13.2983 9.87868 12.8788C10.2982 12.4592 10.8328 12.1735 11.4147 12.0578C11.9967 11.942 12.5999 12.0014 13.1481 12.2285C13.6962 12.4555 14.1648 12.84 14.4944 13.3334C14.8241 13.8267 15 14.4068 15 15.0001C15 15.7958 14.6839 16.5588 14.1213 17.1214C13.5587 17.684 12.7956 18.0001 12 18.0001Z" fill="#9E9E9E"/>
</svg>
