<svg width="24" height="24" viewBox="0 0 24 24" fill="none" xmlns="http://www.w3.org/2000/svg">
<path d="M6.52985 16.4697C6.38767 16.3372 6.19963 16.2651 6.00532 16.2685C5.81102 16.2719 5.62564 16.3506 5.48822 16.4881C5.35081 16.6255 5.2721 16.8109 5.26867 17.0052C5.26524 17.1995 5.33737 17.3875 5.46985 17.5297L7.46985 19.5297C7.61047 19.6701 7.8011 19.749 7.99985 19.749C8.1986 19.749 8.38922 19.6701 8.52985 19.5297L10.5298 17.5297C10.6035 17.461 10.6626 17.3782 10.7036 17.2862C10.7446 17.1942 10.7667 17.0949 10.7684 16.9942C10.7702 16.8935 10.7517 16.7935 10.714 16.7001C10.6762 16.6067 10.6201 16.5219 10.5489 16.4506C10.4777 16.3794 10.3928 16.3233 10.2994 16.2856C10.2061 16.2478 10.106 16.2293 10.0053 16.2311C9.90462 16.2329 9.80531 16.2549 9.71331 16.2959C9.62131 16.3369 9.53851 16.396 9.46985 16.4697L8.74985 17.1897V6.99968C8.74985 6.80077 8.67083 6.61001 8.53018 6.46935C8.38952 6.3287 8.19876 6.24968 7.99985 6.24968C7.80093 6.24968 7.61017 6.3287 7.46952 6.46935C7.32886 6.61001 7.24985 6.80077 7.24985 6.99968L7.24985 17.1897L6.52985 16.4697ZM13.4698 7.52968C13.6105 7.67013 13.8011 7.74902 13.9998 7.74902C14.1986 7.74902 14.3892 7.67013 14.5298 7.52968L15.2498 6.80968V16.9997C15.2498 17.1986 15.3289 17.3894 15.4695 17.53C15.6102 17.6707 15.8009 17.7497 15.9998 17.7497C16.1988 17.7497 16.3895 17.6707 16.5302 17.53C16.6708 17.3894 16.7498 17.1986 16.7498 16.9997V6.80968L17.4698 7.52968C17.5385 7.60337 17.6213 7.66247 17.7133 7.70346C17.8053 7.74446 17.9046 7.7665 18.0053 7.76827C18.106 7.77005 18.2061 7.75153 18.2994 7.71381C18.3928 7.67609 18.4777 7.61994 18.5489 7.54872C18.6201 7.4775 18.6762 7.39267 18.714 7.29928C18.7517 7.20589 18.7702 7.10586 18.7684 7.00516C18.7667 6.90446 18.7446 6.80514 18.7036 6.71314C18.6626 6.62115 18.6035 6.53834 18.5298 6.46968L16.5298 4.46968C16.3892 4.32923 16.1986 4.25034 15.9998 4.25034C15.8011 4.25034 15.6105 4.32923 15.4698 4.46968L13.4698 6.46968C13.3294 6.61031 13.2505 6.80093 13.2505 6.99968C13.2505 7.19843 13.3294 7.38906 13.4698 7.52968Z" fill="black"/>
</svg>
