<svg width="24" height="24" viewBox="0 0 24 24" fill="none" xmlns="http://www.w3.org/2000/svg">
<path d="M11.9996 2.40039C10.7266 2.40039 9.50567 2.9061 8.6055 3.80628C7.70532 4.70645 7.19961 5.92735 7.19961 7.20039C7.19961 8.47343 7.70532 9.69433 8.6055 10.5945C9.50567 11.4947 10.7266 12.0004 11.9996 12.0004C13.2726 12.0004 14.4935 11.4947 15.3937 10.5945C16.2939 9.69433 16.7996 8.47343 16.7996 7.20039C16.7996 5.92735 16.2939 4.70645 15.3937 3.80628C14.4935 2.9061 13.2726 2.40039 11.9996 2.40039ZM8.39961 7.20039C8.39961 6.24561 8.77889 5.32994 9.45403 4.65481C10.1292 3.97968 11.0448 3.60039 11.9996 3.60039C12.9544 3.60039 13.8701 3.97968 14.5452 4.65481C15.2203 5.32994 15.5996 6.24561 15.5996 7.20039C15.5996 8.15517 15.2203 9.07084 14.5452 9.74598C13.8701 10.4211 12.9544 10.8004 11.9996 10.8004C11.0448 10.8004 10.1292 10.4211 9.45403 9.74598C8.77889 9.07084 8.39961 8.15517 8.39961 7.20039ZM6.01041 13.2004C5.69437 13.1991 5.3812 13.2603 5.08884 13.3803C4.79648 13.5003 4.53069 13.6769 4.30672 13.8999C4.08275 14.1228 3.90499 14.3878 3.78365 14.6796C3.66231 14.9715 3.59976 15.2844 3.59961 15.6004C3.59961 17.6296 4.59921 19.1596 6.16161 20.1568C7.70001 21.1372 9.77361 21.6004 11.9996 21.6004C14.2256 21.6004 16.2992 21.1372 17.8376 20.1568C19.4 19.1608 20.3996 17.6284 20.3996 15.6004C20.3996 14.9639 20.1468 14.3534 19.6967 13.9033C19.2466 13.4532 18.6361 13.2004 17.9996 13.2004H6.01041ZM4.79961 15.6004C4.79961 14.9368 5.33721 14.4004 6.01041 14.4004H17.9996C18.3179 14.4004 18.6231 14.5268 18.8481 14.7519C19.0732 14.9769 19.1996 15.2821 19.1996 15.6004C19.1996 17.1712 18.4532 18.3412 17.192 19.144C15.908 19.9636 14.0816 20.4004 11.9996 20.4004C9.91761 20.4004 8.09121 19.9636 6.80721 19.144C5.54721 18.34 4.79961 17.1724 4.79961 15.6004Z" fill="black"/>
</svg>
