<svg width="4" height="18" viewBox="0 0 4 18" fill="none" xmlns="http://www.w3.org/2000/svg">
<path d="M1.99999 2.92C2.2546 2.92 2.49878 2.81886 2.67882 2.63882C2.85885 2.45879 2.95999 2.21461 2.95999 1.96C2.95999 1.70539 2.85885 1.46121 2.67882 1.28118C2.49878 1.10114 2.2546 1 1.99999 1C1.74539 1 1.50121 1.10114 1.32117 1.28118C1.14114 1.46121 1.03999 1.70539 1.03999 1.96C1.03999 2.21461 1.14114 2.45879 1.32117 2.63882C1.50121 2.81886 1.74539 2.92 1.99999 2.92ZM1.99999 9.96C2.2546 9.96 2.49878 9.85886 2.67882 9.67882C2.85885 9.49879 2.95999 9.25461 2.95999 9C2.95999 8.74539 2.85885 8.50121 2.67882 8.32118C2.49878 8.14114 2.2546 8.04 1.99999 8.04C1.74539 8.04 1.50121 8.14114 1.32117 8.32118C1.14114 8.50121 1.03999 8.74539 1.03999 9C1.03999 9.25461 1.14114 9.49879 1.32117 9.67882C1.50121 9.85886 1.74539 9.96 1.99999 9.96ZM1.99999 17C2.2546 17 2.49878 16.8989 2.67882 16.7188C2.85885 16.5388 2.95999 16.2946 2.95999 16.04C2.95999 15.7854 2.85885 15.5412 2.67882 15.3612C2.49878 15.1811 2.2546 15.08 1.99999 15.08C1.74539 15.08 1.50121 15.1811 1.32117 15.3612C1.14114 15.5412 1.03999 15.7854 1.03999 16.04C1.03999 16.2946 1.14114 16.5388 1.32117 16.7188C1.50121 16.8989 1.74539 17 1.99999 17Z" stroke="black" stroke-width="1.5" stroke-linecap="round" stroke-linejoin="round"/>
</svg>
